/* XPM */
static char *_5e8aa9dbdf849f1a137b093a9fe476aNSYeED7RdN4G1xUA[] = {
/* columns rows colors chars-per-pixel */
"64 64 130 2 ",
"   c #020202",
".  c #0B0201",
"X  c #020903",
"o  c #0B0B04",
"O  c #04030A",
"+  c #0A040A",
"@  c #03090D",
"#  c #0B0B0B",
"$  c #130301",
"%  c #1C0100",
"&  c #150A03",
"*  c #190803",
"=  c #160D0A",
"-  c #15110F",
";  c #18130A",
":  c #0F0F11",
">  c #130E11",
",  c #0F1711",
"<  c #141414",
"1  c #191511",
"2  c #1F1815",
"3  c #1B1C1B",
"4  c #240100",
"5  c #2A0100",
"6  c #230804",
"7  c #220208",
"8  c #2E0508",
"9  c #2B0A0A",
"0  c #340001",
"q  c #3B0203",
"w  c #38090A",
"e  c #20150E",
"r  c #2E140E",
"t  c #360C14",
"y  c #261210",
"u  c #2D1714",
"i  c #251C14",
"p  c #291D15",
"a  c #21171B",
"s  c #23191B",
"d  c #20231B",
"f  c #2B231F",
"g  c #2C261C",
"h  c #31231F",
"j  c #332A1D",
"k  c #2E2523",
"l  c #2D2E2D",
"z  c #312020",
"x  c #342924",
"c  c #382C24",
"v  c #3A3027",
"b  c #3C362F",
"n  c #303032",
"m  c #383633",
"M  c #383D37",
"N  c #393939",
"B  c #400202",
"V  c #490200",
"C  c #440008",
"Z  c #550303",
"A  c #5B0200",
"S  c #520D06",
"D  c #5E0A00",
"F  c #590D0F",
"G  c #401B14",
"H  c #541214",
"J  c #630100",
"K  c #690200",
"L  c #6A0C09",
"P  c #7E100A",
"I  c #751214",
"U  c #42211A",
"Y  c #441820",
"T  c #542D26",
"R  c #44352E",
"E  c #4D3D2E",
"W  c #413A31",
"Q  c #613E32",
"!  c #4E4037",
"~  c #524237",
"^  c #414141",
"/  c #584B45",
"(  c #514048",
")  c #5E534C",
"_  c #555D55",
"`  c #5D5F57",
"'  c #5C5C5C",
"]  c #654E43",
"[  c #694B44",
"{  c #7E5343",
"}  c #70594F",
"|  c #765F57",
" . c #7A5E5A",
".. c #71604E",
"X. c #666255",
"o. c #626759",
"O. c #6F6F71",
"+. c #840B16",
"@. c #9D1819",
"#. c #DC342F",
"$. c #865E4F",
"%. c #BD4545",
"&. c #80685F",
"*. c #837A6B",
"=. c #8A7F73",
"-. c #878276",
";. c #9A8877",
":. c #9F9186",
">. c #A39784",
",. c #AAACA7",
"<. c #BBABA1",
"1. c #E9A693",
"2. c #F5B39C",
"3. c #C9B9B0",
"4. c #EEB6A2",
"5. c #DBC7B6",
"6. c #D2C3BA",
"7. c #FBC2AB",
"8. c #DDCCC1",
"9. c #E9D6C9",
"0. c #ECDBCE",
"q. c #FADFC5",
"w. c #F1E0CF",
"e. c #E6E1D3",
"r. c #EFE3D0",
"t. c #F1E0D1",
"y. c #F8E4D2",
"u. c #F8E7D8",
"i. c #F7E9D8",
"p. c #F7EDE0",
/* pixels */
"B B B B B B B B B B B B B B B B B B B B B B B B B B B B B B B B B B B B B B B B B B B B B B B B B B B B B B B B B B B B B B B B ",
"B B B B B B B B B B B B B B B B B B B B B B B B B B B B B B B B B B B B B B B B B B B B B B B B B l N B B B B B B B B B B B B B ",
"B B B B B B B B B B B B B B B B B B B B B B O.n O     O       O       O       B B B B B B B O O O       O ^ B B B B B B B B B B ",
"Z B B B B B B B B B B B B B B B B B B B #   O                                     B B B B               O O O O B B B B B B B Z ",
"Z Z B B B B B B B B B B B B B B B B B :                                                                   O O # B B B B B B Z Z ",
"Z Z Z B B B B B B B B B B B B B B # # +     O                                                               O X # B B B B Z Z Z ",
"Z Z Z Z B B B B B B B B B B B B + # + +                                                                     X X O 3 B B Z Z Z Z ",
"Z Z Z Z Z B B B B B B B B B B # : + O                                                                             # B Z Z Z Z Z ",
"Z Z Z Z Z Z B B B B B B B B b W e o o .   + + +                             . .                               O   # Z Z Z Z Z Z ",
"Z Z Z Z Z Z Z B B B B B B g p.p.p.p.p.- #   +                               . . #.                                  < Z Z Z Z Z ",
"Z Z Z Z Z Z Z Z B B B B m p.p.p.p.p.p.,.3   O                                 #.#.          . . .                 X < Z Z Z Z Z ",
"Z Z Z Z Z Z Z Z Z B B B 1 p.p.p.p.p.p.` M X X X                               #.#.X         . . .                 O l Z Z Z Z Z ",
"Z Z Z Z Z Z Z Z Z Z B B . p.p.p.E & . ; .   X o . .   .                       #.#.$ X       . . .                 O ' Z Z Z Z Z ",
"Z Z Z Z Z Z Z Z Z Z Z B v p.p.p.p.p.p.p.p.p.p.p.& = .   +       .         . . #.#.#.$ .   X                 O O O Z Z Z Z Z Z Z ",
"Z Z Z Z Z Z Z Z Z Z Z . p.p.p.p.p.p.p.p.p.p.p.p.R . . #         .         . . #.#.#.4 $ .   X                 O   Z Z Z Z Z Z Z ",
"Z Z Z Z Z Z Z Z Z Z Z . p.p.p.p.p.p.p.p.p.p.p.p.3.e . O O O     .         X . #.#.#.#.5 $ . X                 O Z Z Z Z Z Z Z Z ",
"Z Z Z Z Z Z Z Z Z Z Z & p.p.p.p.p.p.p.p.p.p.p.p.p./ .   @ O O   .         X   . #.#.#.#.4 .     . . .     O   # Z Z Z Z Z Z Z Z ",
"Z Z Z Z Z Z Z Z Z Z Z ; p.p.p.p.p.p.p.p.p.p.p.p.p.8.p .   O O                 . 4 #.#.#.#.$     . .       O O Z Z Z Z Z Z Z Z Z ",
"Z Z Z Z Z Z Z Z Z Z Z 2 p.p.p.p.p.p.p.p.p.p.p.p.p.p.;.& . O O                   O 7 #.#.#.#..             O O Z Z Z Z Z Z Z Z Z ",
"Z Z Z Z Z Z Z Z Z Z Z f p.p.p.p.p.p.p.p.p.p.p.p.p.p.p.>.o + .                     . . . #.#.#.    .       O # Z Z Z Z Z Z Z Z Z ",
"Z Z Z Z Z Z Z Z Z Z Z k p.p.p.p.p.p.p.p.p.p.p.p.p.p.p.r.j .   . .                                 .           Z Z Z Z Z Z Z Z Z ",
"Z Z Z Z Z Z Z Z Z Z Z x p.p.p.p.p.p.p.p.p.p.p.p.p.p.p.i.=..   .                                           O # Z Z Z Z Z Z Z Z Z ",
"Z Z Z Z Z Z Z Z Z Z Z h p.p.p.p.p.p.p.p.p.p.p.p.. . 9.t.6.+ + O                     . .               X   # Z Z Z Z Z Z Z Z Z Z ",
"Z Z Z Z Z Z Z Z Z Z Z c p.p.p.p.p.p.p.0.. . . . . &.p.p.p.+ O O O                 . . . . .                 Z Z Z Z Z Z Z Z Z Z ",
"Z Z Z Z Z Z Z Z Z Z - ! p.p.p.p.E . . . . 0.p.p.p.p.p.p.p.b     O                                       # Z Z Z Z Z Z Z Z Z Z Z ",
"Z Z Z Z Z Z Z Z Z Z o p.p.p.p.p.. . p.p.p.p.p.p.p.p.p.p.p.*.. X                                   .   # O Z Z Z Z Z Z Z Z Z Z Z ",
"Z Z Z Z Z Z Z Z Z Z . p.p.p.p.p.p.p.p.p.p.p.p.p.p.p.p.p.p.5.$ . O                             X O     # _ Z Z Z Z Z Z Z Z Z Z Z ",
"Z Z Z Z Z Z Z Z Z Z . p.p.p.p.p.p.p.p.p.p.p.p.p.p.p.p.p.p.y.) .                                     3 3 Z Z Z Z Z Z Z Z Z Z Z Z ",
"Z Z Z Z Z Z Z Z Z Z . p.p.p.p.p.p.p.p.p.p.7.p.p.p.p.p.p.p.p.<.= .                             O   O O Z Z Z Z Z Z Z Z Z Z Z Z Z ",
"Z Z Z Z Z Z Z Z Z Z $ p.p.p.p.p.p.p.p.%.%.%.1.p.p.p.p.p.p.p.w.:.$ . X . .     .               #   # Z Z Z Z Z Z Z Z Z Z Z Z Z Z ",
"Z Z Z Z Z Z Z Z Z Z & p.p.p.p.p.p.p.2.%.%.%.1.p.p.p.p.p.p.p.p.u.~ . o . .           X       # O # Z Z Z Z Z Z Z Z Z Z Z Z Z Z Z ",
"Z Z Z Z Z Z Z Z Z Z k i p.p.p.p.p.p.7.%.%.%.4.p.p.p.p.p.p.p.p.p.p.i X . O         .       O O l Z Z Z Z Z Z Z Z Z Z Z Z Z Z Z Z ",
"Z Z Z Z Z Z Z Z Z Z Z . p.p.p.p.p.p.p.p.p.p.p.p.p.p.p.p.p.p.p.p.p.p.; X         .       O O ' Z Z Z Z Z Z Z Z Z Z Z Z Z Z Z Z Z ",
"Z Z Z Z Z Z Z Z Z Z Z Z . p.p.p.p.p.p.p.p.p.p.p.p.p.p.p.p.p.p.p.p.p.-.  <       . .   #   N Z Z Z Z Z Z Z Z Z Z Z Z Z Z Z Z Z Z ",
"Z Z Z Z Z Z Z Z Z Z Z Z Z o c p.p.p.p.p.p.p.p.p.p.p.p.p.p.p.p.p.p.p.e.# O # + + . . # N Z Z Z Z Z Z Z Z Z Z Z Z Z Z Z Z Z Z Z Z ",
"Z Z Z Z Z Z Z Z Z Z Z Z Z Z Z Z _ l . . * 6 U T ] [ | X.o. .} ..$.{ Q a > X d Z Z Z B Z Z Z Z Z Z Z Z Z Z Z Z Z Z Z Z Z Z Z Z Z ",
"Z Z Z Z Z Z Z Z Z Z Z Z Z Z Z Z Z Z Z Z % #.#.#.#.6 $ $ $ . % #.#.#.#.% a B Z Z Z B Z Z Z Z Z Z Z Z Z Z Z Z Z Z Z Z Z Z Z Z Z Z ",
"Z Z Z Z Z Z Z Z Z Z Z Z Z Z Z Z Z Z Z Z 5 #.#.#.+.4 #.#.#.#.G #.#.#.#.q z Z Z Z Z B Z Z Z Z Z Z Z Z Z Z Z Z Z Z Z Z Z Z Z Z Z Z ",
"Z Z Z Z Z Z Z Z Z Z Z Z Z Z Z Z Z Z Z h V #.#.#.+.V #.#.#.#.Z #.#.#.#.#.9 Z Z Z B Z Z Z Z Z Z Z Z Z Z Z Z Z Z Z Z Z Z Z Z Z Z Z ",
"Z Z Z Z Z Z Z Z Z Z Z Z Z Z Z Z Z Z Z 6 L #.#.#.+.#.#.#.#.#.A #.#.#.#.#.0 Z Z B B B Z Z Z Z Z Z Z Z Z Z Z Z Z Z Z Z Z Z Z Z Z Z ",
"Z Z Z Z Z Z Z Z Z Z Z Z Z Z Z Z Z Z Z Z #.#.#.#.Z #.#.#.#.#.J A #.#.#.#.K 5 B B B B B Z Z Z Z Z Z Z Z Z Z Z Z Z Z Z Z Z Z Z Z Z ",
"Z Z Z Z Z Z Z Z Z Z Z Z Z Z Z Z Z Z Z #.#.#.#.#.J #.#.#.#.#.#.Z #.#.#.#.#.5 B B B B B B Z Z Z Z Z Z Z Z Z Z Z Z Z Z Z Z Z Z Z Z ",
"Z Z Z Z Z Z Z Z Z Z Z Z Z Z Z Z Z Z ( #.#.#.#.P +.#.#.#.#.#.#.J #.#.#.#.#.0 B B B B B B B Z Z Z Z Z Z Z Z Z Z Z Z Z Z Z Z Z Z Z ",
"Z Z Z Z Z Z Z Z Z Z Z Z Z Z Z Z Z B u #.#.#.#.J #.#.#.#.#.#.#.A #.#.#.#.#.D r B B B B B B B Z Z Z Z Z Z Z Z Z Z Z Z Z Z Z Z Z Z ",
"Z Z Z Z Z Z Z Z Z Z Z Z Z Z Z Z B B 6 #.#.#.#.J #.#.#.#.#.#.J Z #.#.#.#.#.#.0 B B B B B B B B Z Z Z Z Z Z Z Z Z Z Z Z Z Z Z Z Z ",
"Z Z Z Z Z Z Z Z Z Z Z Z Z Z Z B B 4 #.#.#.#.#.A #.#.#.#.#.#.J #.#.#.#.#.#.#.#.t B B B B B B B B Z Z Z Z Z Z Z Z Z Z Z Z Z Z Z Z ",
"Z Z Z Z Z Z Z Z Z Z Z Z Z Z B B B 0 #.#.#.#.#.A #.#.#.#.#.#.J #.#.#.#.#.#.#.#.0 B B B B B B B B B Z Z Z Z Z Z Z Z Z Z Z Z Z Z Z ",
"Z Z Z Z Z Z Z Z Z Z Z Z Z B B B B w #.#.#.#.#.Z #.#.#.#.#.#.Z #.#.#.#.#.#.#.#.0 B B B B B B B B B B Z Z Z Z Z Z Z Z Z Z Z Z Z Z ",
"Z Z Z Z Z Z Z Z Z Z Z Z B B B B B B #.#.#.#.#.C 0 0 V B S q V L #.#.#.#.@.I H 4 B B B B B B B B B B B Z Z Z Z Z Z Z Z Z Z Z Z Z ",
"Z Z Z Z Z Z Z Z Z Z Z B B B B B B B * B #.#.#.Y s q.q.q.q.q.4 F #.#.#.V 0 B B B B B B B B B B B B B B B Z Z Z Z Z Z Z Z Z Z Z Z ",
"Z Z Z Z Z Z Z Z Z Z B B B B B B B B B B % % % . , q.q.q.q.q.. 8 0 0 0 y ) B B B B B B B B B B B B B B B B Z Z Z Z Z Z Z Z Z Z Z ",
"Z Z Z Z Z Z Z Z Z B B B B B B B B B B B B B B B X X q.q.q.@   @ B B B B B B B B B B B B B B B B B B B B B B Z Z Z Z Z Z Z Z Z Z ",
"Z Z Z Z Z Z Z Z B B B B B B B B B B B B B B B B   O     # X O   B B B B B B B B B B B B B B B B B B B B B B B Z Z Z Z Z Z Z Z Z ",
"Z Z Z Z Z Z Z B B B B B B B B B B B B B B B B B O # O       O # B B B B B B B B B B B B B B B B B B B B B B B B Z Z Z Z Z Z Z Z ",
"Z Z Z Z Z Z B B B B B B B B B B B B B B B B B B O O O O O   O B B B B B B B B B B B B B B B B B B B B B B B B B B Z Z Z Z Z Z Z ",
"Z Z Z Z Z B B B B B B B B B B B B B B B B B B B O             B B B B B B B B B B B B B B B B B B B B B B B B B B B Z Z Z Z Z Z ",
"Z Z Z Z B B B B B B B B B B B B B B B B B B B B           O   B B B B B B B B B B B B B B B B B B B B B B B B B B B B Z Z Z Z Z ",
"Z Z Z B B B B B B B B B B B B B B B B B B B B B               B B B B B B B B B B B B B B B B B B B B B B B B B B B B B Z Z Z Z ",
"Z Z B B B B B B B B B B B B B B B B B B B B B B B         O   B B B B B B B B B B B B B B B B B B B B B B B B B B B B B B Z Z Z ",
"Z B B B B B B B B B B B B B B B B B B B B B B B B O O O   O # B B B B B B B B B B B B B B B B B B B B B B B B B B B B B B B Z Z ",
"B B B B B B B B B B B B B B B B B B B B B B B B B O O # O # # B B B B B B B B B B B B B B B B B B B B B B B B B B B B B B B B Z ",
"B B B B B B B B B B B B B B B B B B B B B B B B B B # O # B B B B B B B B B B B B B B B B B B B B B B B B B B B B B B B B B B B ",
"B B B B B B B B B B B B B B B B B B B B B B B B B B B B B B B B B B B B B B B B B B B B B B B B B B B B B B B B B B B B B B B B ",
"B B B B B B B B B B B B B B B B B B B B B B B B B B B B B B B B B B B B B B B B B B B B B B B B B B B B B B B B B B B B B B B B "
};
