/* XPM */
static char *_b9bc4a9ecb149c3bfdcc60ee1f92d6dP3w2Pti75Mx37T6M[] = {
/* columns rows colors chars-per-pixel */
"64 64 191 2 ",
"   c #130D06",
".  c #1C0C05",
"X  c #171007",
"o  c #181107",
"O  c #1C1309",
"+  c #3F0706",
"@  c #350905",
"#  c #3E0D06",
"$  c #24190B",
"%  c #291D0D",
"&  c #3D150A",
"*  c #3E0E10",
"=  c #3A1A1B",
"-  c #2F210E",
";  c #31220F",
":  c #362611",
">  c #3D2A12",
",  c #352020",
"<  c #3B2B2B",
"1  c #2C3839",
"2  c #353334",
"3  c #400202",
"4  c #420A05",
"5  c #4F0F07",
"6  c #550303",
"7  c #510A05",
"8  c #580B08",
"9  c #481208",
"0  c #481E0D",
"q  c #5B1A0A",
"w  c #461817",
"e  c #600F07",
"r  c #661A0B",
"t  c #631E10",
"y  c #402610",
"u  c #412D13",
"i  c #493316",
"p  c #563B16",
"a  c #66260D",
"s  c #71210C",
"d  c #70300F",
"f  c #652614",
"g  c #6A3517",
"h  c #773C19",
"j  c #422527",
"k  c #443821",
"l  c #69481A",
"z  c #7F561F",
"x  c #5B583C",
"c  c #644922",
"v  c #794B25",
"b  c #755222",
"n  c #77522B",
"m  c #735C35",
"M  c #7C5E31",
"N  c #6A643E",
"B  c #7F6435",
"V  c #71643A",
"C  c #786639",
"Z  c #2A4343",
"A  c #254C4D",
"S  c #284B4A",
"D  c #304D47",
"F  c #3D5447",
"G  c #32514B",
"H  c #385348",
"J  c #254D52",
"K  c #234C5F",
"L  c #265154",
"P  c #26555A",
"I  c #26595E",
"U  c #1E497F",
"Y  c #214A69",
"T  c #275B61",
"R  c #315865",
"E  c #28636C",
"W  c #316368",
"Q  c #2A6975",
"!  c #296A75",
"~  c #366A74",
"^  c #29717F",
"/  c #4C5944",
"(  c #445648",
")  c #635959",
"_  c #54604F",
"`  c #48665D",
"'  c #5C6451",
"]  c #59705F",
"[  c #7C6C44",
"{  c #676D51",
"}  c #777855",
"|  c #51756C",
" . c #487878",
".. c #527370",
"X. c #687D66",
"o. c #853913",
"O. c #884616",
"+. c #914B18",
"@. c #94521A",
"#. c #9E581C",
"$. c #A65D1D",
"%. c #A6631F",
"&. c #865C28",
"*. c #835E2E",
"=. c #925D25",
"-. c #805F31",
";. c #84602F",
":. c #8B642E",
">. c #9B6624",
",. c #93652B",
"<. c #956A2E",
"1. c #9B6C2D",
"2. c #836333",
"3. c #8A6633",
"4. c #876B37",
"5. c #8C6B34",
"6. c #926B32",
"7. c #9B6E31",
"8. c #89703A",
"9. c #9E7435",
"0. c #977539",
"q. c #A46E29",
"w. c #B36D22",
"e. c #A77024",
"r. c #A5722C",
"t. c #AB742B",
"y. c #AE7B2E",
"u. c #BA7624",
"i. c #B47C2D",
"p. c #B97D2B",
"a. c #A97530",
"s. c #A57931",
"d. c #A97B33",
"f. c #A47538",
"g. c #B47C35",
"h. c #C27E27",
"j. c #8C7947",
"k. c #827550",
"l. c #4F837E",
"z. c #5E8071",
"x. c #6D8369",
"c. c #708164",
"v. c #BD812C",
"b. c #AA803E",
"n. c #B68537",
"m. c #BB8234",
"M. c #C48027",
"N. c #C4832A",
"B. c #C9852A",
"V. c #CA882F",
"C. c #C48736",
"Z. c #CB8932",
"A. c #CB8D3C",
"S. c #9D8447",
"D. c #868356",
"F. c #B5874F",
"G. c #C08C4C",
"H. c #CC9144",
"J. c #CD944C",
"K. c #C69055",
"L. c #C7955A",
"P. c #CE9A5C",
"I. c #CF9C60",
"U. c #1C468C",
"Y. c #2F4B8F",
"T. c #3A5087",
"R. c #2C798B",
"E. c #3D7C85",
"W. c #377D89",
"Q. c #21619A",
"!. c #266F9F",
"~. c #2A6D9B",
"^. c #2B7E91",
"/. c #26729E",
"(. c #29729B",
"). c #297C9A",
"_. c #1A4CAE",
"`. c #1B52AD",
"'. c #1E5BA9",
"]. c #1644B3",
"[. c #1846B1",
"{. c #1748B1",
"}. c #184BB1",
"|. c #2455A4",
" X c #1F60A7",
".X c #2164A5",
"XX c #236BA1",
"oX c #585E80",
"OX c #36818E",
"+X c #2B8297",
"@X c #318091",
/* pixels */
"3 3 3 3 3 3 3 3 3 3 3 3 3 3 3 3 3 3 3 3 3 3 3 3 3 3 3 3 3 3 3 3 3 3 3 3 3 3 3 3 3 3 3 3 3 3 3 3 3 3 3 3 3 3 3 3 3 3 3 3 3 3 3 3 ",
"3 3 3 3 3 3 3 3 3 3 3 3 3 3 3 3 3 3 3 3 3 3 3 3 3 3 3 3 3 3 3 3 3 3 3 3 3 3 3 3 3 3 3 3 3 3 3 3 3 3 3 3 3 3 3 3 3 3 3 3 3 3 3 3 ",
"3 3 3 3 3 3 3 3 3 3 3 3 3 3 3 3 3 3 3 3 3 3 3 3 3 3 3 3 3 3 3 3 3 3 3 3 3 3 3 3 3 3 3 3 3 3 3 3 3 3 3 3 3 3 3 3 3 3 3 3 3 3 3 3 ",
"6 3 3 3 3 3 3 3 3 3 3 3 3 3 3 3 3 3 3 3 3 3 3 3 3 3 3 3 3 3 3 3 3 3 3 3 3 3 3 3 3 3 3 3 3 3 3 3 3 3 3 3 3 3 3 3 3 3 3 3 3 3 3 6 ",
"6 6 3 3 3 3 3 3 3 3 3 3 3 3 3 3 3 3 3 3 3 3 3 3 3 3 3 3 3 3 3 3 3 3 3 3 3 3 3 3 3 3 3 3 3 3 3 3 3 3 3 3 3 3 3 3 3 3 3 3 3 3 6 6 ",
"6 6 6 3 3 3 3 3 3 3 3 3 3 3 3 3 3 3 3 3 3 3 3 3 3 3 3 3 3 3 3 3 3 3 3 3 3 3 3 3 3 3 3 3 3 3 3 3 3 3 3 3 3 3 3 3 3 + > O 3 6 6 6 ",
"6 6 6 6 3 3 3 3 3 3 3 3 3 3 3 3 3 3 3 3 3 3 3 3 3 3 3 3 3 3 3 3 3 3 3 3 3 3 3 3 3 3 3 3 3 3 3 3 3 3 3 3 3 3 3 3 u $     6 6 6 6 ",
"6 6 6 6 6 3 3 3 3 3 3 3 3 3 3 3 3 3 3 3 3 3 3 3 3 3 3 3 3 3 3 3 3 3 3 3 3 3 3 3 3 3 3 3 3 3 3 3 3 3 3 3 3 3 u ;       6 6 6 6 6 ",
"6 6 6 6 6 6 3 3 3 3 3 3 3 3 3 3 3 3 3 3 3 3 3 3 3 3 3 3 3 3 3 3 3 3 3 3 3 3 3 3 3 3 3 3 3 3 3 3 3 3 3 3 u %       @ 6 6 6 6 6 6 ",
"6 6 6 6 6 6 6 3 3 3 3 3 3 3 3 3 3 3 3 3 3 3 3 3 3 3 3 3 3 3 3 3 3 3 3 3 3 3 3 3 3 3 3 3 3 3 3 3 3 4 u $       @ 3 6 6 6 6 6 6 6 ",
"6 6 6 6 6 6 6 6 3 3 3 3 3 3 3 3 3 3 3 3 3 3 3 3 3 3 3 3 3 3 3 3 3 3 3 3 3 3 3 3 3 3 3 3 3 3 3 3 u O       # 3 3 6 6 6 6   . 6 6 ",
"6 6 6 6 6 6 6 6 6 3 3 3 3 3 3 3 3 3 3 3 3 3 3 3 3 3 3 3 3 3 3 3 3 3 3 3 3 3 3 3 3 3 3 3 3 3 > o       # 3 3 3 6 6 7 o     O 6 6 ",
"6 6 6 6 6 6 6 6 6 6 3 3 3 3 3 3 3 3 3 3 3 3 4 +.#.@.q 3 3 3 3 3 3 3 3 3 3 3 a O.h 5 3 3 & X       # 3 3 3 3 6 5 O     X u u 6 6 ",
"6 6 6 6 6 6 6 6 6 6 6 3 3 3 3 3 3 3 3 3 3 @.w.>.&.:.,.,.1.e.%.3 3 3 3 q u.h.h.h.M.N.>.      o 4 3 3 3 3 3 0 O       u 0 6 6 6 6 ",
"6 6 6 6 6 6 6 6 6 6 6 6 3 3 3 3 3 3 3 3 w.t.:.:.1.t.p.t.,.=.u.u.d 3 @.h.u.O.a q 3 o     O g 3 3 3 3 3 y o       > 7 6 6 6 6 6 6 ",
"6 6 6 6 6 6 6 6 6 6 6 6 6 3 3 3 3 3 3 h.r.:.:.r.1.&.&.:.:.t.D y.v.V v.p.<.:.:.%     o 9 M.B.d 3 3 >         u 7 6 6 6 6 6 6 6 6 ",
"6 6 6 6 6 6 6 6 6 6 6 6 6 6 3 3 3 3 u.p.;.:.;.*.*.M ;.;.-.;.;.N B.B.B.1.:.i $   o c ;.M w N.u.u       o > 6 6 6 6 6 6 6 6 6 6 6 ",
"6 6 6 6 6 6 6 6 6 6 6 6 6 6 6 3 3 5 B.:.;.;.;.5.4.s.d.y.i.y.;.;.v.B.m.b.k u - l B.B.p.;.*.u       O u O.6 6 6 6 6 6 6 6 6 6 6 6 ",
"6 6 6 6 6 6 6 6 6 6 6 6 6 6 6 6 3 h.r.;.:.:.v.i.s.9._ k.C.V.p.*.m.B.V.H.n l Z.Z.C.3.] u O     o u w.w.s 6 6 6 6 6 6 6 6 6 6 6 6 ",
"6 6 6 6 6 6 6 6 6 6 6 6 6 6 6 6 6 B.;.;.0.N.V.N.;.;.2.A.A.P.B.*.g.B.B.p.K.A.V.V.A.i :       u V e 6 6 6 6 6 6 6 6 6 6 6 6 6 6 6 ",
"6 6 6 6 6 6 6 6 6 6 6 6 6 6 6 6 R.B.;.:.J.V.B.*.*.3.G.H.I.V.:.*.A.B.r.:.f.H.A.A.p       : e.B.A 6 6 6 6 6 6 6 6 6 6 6 6 6 6 6 6 ",
"6 6 6 6 6 6 6 6 6 6 6 6 6 6 6 8 J N.*.7.Z.A.p.*.m.J.P.I.Z.t.*.3.L.p.;.;.;.;.;.:     - 3.B.B.5.A 6 6 6 6 6 6 6 6 6 6 6 6 6 6 6 6 ",
"6 6 6 6 6 6 6 6 6 6 6 6 6 6 6 ~ A v.*.a.A.V.B.;.*.;.,.:.;.*.;.A.7.7.f.v.B.b u u > b V.B.B.d.A A 6 6 6 6 6 6 6 6 6 6 6 6 6 6 6 6 ",
"6 6 6 6 6 6 6 6 6 6 6 6 6 6 6 L A / *.p.Z.P.C.B.1.;.*.*.;.9.V.B.:.7.P.L.F.&.u z B.B.B.B.{ A A A 6 6 6 6 6 6 6 6 6 6 6 6 6 6 6 6 ",
"6 6 6 6 6 6 6 6 6 6 6 6 6 6 6 J A m *.B.B.B.r.p.V.B.V.A.Z.V.V.N.;.m.i.r.1.1.1.B.B.B.N.v.N A L A 7 6 6 6 6 6 6 6 6 6 6 6 6 6 6 6 ",
"6 6 6 6 6 6 6 6 6 6 6 6 6 6 6 I x *.M A s.B.1.q.B.N.v.v.i.8.( :.;.' [ d.v.v.<.C G A A y.v.D.T A 6 6 6 6 6 6 6 6 6 6 6 6 6 6 6 6 ",
"6 6 6 6 6 6 6 6 6 6 6 6 6 6 f *.*.B J A A A m :.F G G A A A A x ;.v.A A G H B 2.F A W +XS.n.s.G 6 6 6 6 6 6 6 6 6 6 6 6 6 6 6 6 ",
"6 6 6 6 6 6 6 6 6 6 6 6 t *.*.*.( +X+X+X+X+X2.:.G A A A A A A A *.:.A A L P ^ 4.4.+X+X+X+Xl.d.s.#.e 6 6 6 6 6 6 6 6 6 6 6 6 6 6 ",
"6 6 6 6 6 6 6 6 6 6 6 *.*.*.f S J XX).+X+X@X;.i.+X+X+X+X+X+X+X+X2.*.@X+X+X+X+X .3.z.+X+X+X+XA / o.8 6 6 6 6 6 6 6 6 6 6 6 6 6 6 ",
"6 6 6 6 6 6 6 6 6 6 *.*.h 6 6 S Y `.{.].{.T.;.n..X_._._.`.`.|.|.~.;.;.XX}.}.`.!.3.5.+X`.}.`.Y A 6 6 6 6 6 6 6 6 6 6 6 6 6 6 6 6 ",
"6 6 6 6 6 6 6 6 6 g *.f 6 6 6 Z A R.).XX'.) :.+XXX`.{.].].].].].'.p.;.) _.]._.XXj.6.W.~. XQ.J < 6 6 6 6 6 6 6 6 6 6 6 6 6 6 6 6 ",
"6 6 6 6 6 6 6 6 6 v n 6 6 6 6 2 A L +X+Xj.:.c.+X+X+X+X+X+X+X+X+X+X+XN.:.3.| +X+XOX1.{ +X+XJ A 6 6 6 6 6 6 6 6 6 6 6 6 6 6 6 6 6 ",
"6 6 6 6 6 6 6 6 6 t q 6 6 6 6 w A A +X@X6.5.+X+X+X+X+X+X+X+X@X+X@X..@Xx.}  .+X+X+Xv.6.E.P A S 6 6 6 6 6 6 6 6 6 6 6 6 6 6 6 6 6 ",
"6 6 6 6 6 6 6 6 6 6 6 6 6 6 6 6 < A ^.@X0.X.+X).).+X).).).)./.XX.X X'.`.`.`._.}.}.oXr.` A A 6 6 6 6 6 6 6 6 6 6 6 6 6 6 6 6 6 6 ",
"6 6 6 6 6 6 6 6 6 6 6 6 6 6 6 6 6 A K `._.[.].].].].].].].].].].].].].].].].].].]._.g.C A A 6 6 6 6 6 6 6 6 6 6 6 6 6 6 6 6 6 6 ",
"6 6 6 6 6 6 6 6 6 6 6 6 6 6 6 6 6 Z A /.XX!./.).).).).).).).+X+X+X+X+X+X+X+X+X+XE.R.i.N./ 6 6 6 6 6 6 6 6 6 6 6 6 6 6 6 6 6 6 6 ",
"6 6 6 6 6 6 6 6 6 6 6 6 6 6 6 6 6 6 A A +X@X+X+X+X+X+X+X+X+X+X+X+XE. .+X+X+X+XE.E A A y.u.$.r 6 6 6 6 6 6 6 6 6 6 6 6 6 6 6 6 6 ",
"6 6 6 6 6 6 6 6 6 6 6 6 6 6 6 6 6 6 2 A I +X(.}.].].].].].].].].].].].].].].].U A A A j o.$.+.8 6 6 6 6 6 6 6 6 6 6 6 6 6 6 6 6 ",
"6 6 6 6 6 6 6 6 6 6 6 6 6 6 6 6 6 6 6 S A I XX}.].].].].].].].].].].}.`.`.Y.U.J A A w 6 6 6 6 6 6 6 6 6 6 6 6 6 6 6 6 6 6 6 6 6 ",
"6 6 6 6 6 6 6 6 6 6 6 6 6 6 6 6 6 6 6 6 Z A A ^.+X+X+X+X+X+X+X+X+X+X+X+XA A A A A 3 6 6 6 6 6 6 6 6 6 6 6 6 6 6 6 6 6 6 6 6 6 6 ",
"6 6 6 6 6 6 6 6 6 6 6 6 6 6 6 6 6 6 6 6 3 , A A A ! +X+X+X+X+X+X+X^.A A A A P = 3 3 3 6 6 6 6 6 6 6 6 6 6 6 6 6 6 6 6 6 6 6 6 6 ",
"6 6 6 6 6 6 6 6 6 6 6 6 6 6 6 6 6 6 6 3 3 3 3 1 A A A A A A A E ! T A A ! * 3 3 3 3 3 3 6 6 6 6 6 6 6 6 6 6 6 6 6 6 6 6 6 6 6 6 ",
"6 6 6 6 6 6 6 6 6 6 6 6 6 6 6 6 6 6 3 3 3 3 3 3 3 + = Z S S L R.R = 3 3 3 3 3 3 3 3 3 3 3 6 6 6 6 6 6 6 6 6 6 6 6 6 6 6 6 6 6 6 ",
"6 6 6 6 6 6 6 6 6 6 6 6 6 6 6 6 6 3 3 3 3 3 3 3 3 3 3 3 3 3 3 3 3 3 3 3 3 3 3 3 3 3 3 3 3 3 6 6 6 6 6 6 6 6 6 6 6 6 6 6 6 6 6 6 ",
"6 6 6 6 6 6 6 6 6 6 6 6 6 6 6 6 3 3 3 3 3 3 3 3 3 3 3 3 3 3 3 3 3 3 3 3 3 3 3 3 3 3 3 3 3 3 3 6 6 6 6 6 6 6 6 6 6 6 6 6 6 6 6 6 ",
"6 6 6 6 6 6 6 6 6 6 6 6 6 6 6 3 3 3 3 3 3 3 3 3 3 3 3 3 3 3 3 3 3 3 3 3 3 3 3 3 3 3 3 3 3 3 3 3 6 6 6 6 6 6 6 6 6 6 6 6 6 6 6 6 ",
"6 6 6 6 6 6 6 6 6 6 6 6 6 6 3 3 3 3 3 3 3 3 3 3 3 3 3 3 3 3 3 3 3 3 3 3 3 3 3 3 3 3 3 3 3 3 3 3 3 6 6 6 6 6 6 6 6 6 6 6 6 6 6 6 ",
"6 6 6 6 6 6 6 6 6 6 6 6 6 3 3 3 3 3 3 3 3 3 3 3 3 3 3 3 3 3 3 3 3 3 3 3 3 3 3 3 3 3 3 3 3 3 3 3 3 3 6 6 6 6 6 6 6 6 6 6 6 6 6 6 ",
"6 6 6 6 6 6 6 6 6 6 6 6 3 3 3 3 3 3 3 3 3 3 3 3 3 3 3 3 3 3 3 3 3 3 3 3 3 3 3 3 3 3 3 3 3 3 3 3 3 3 3 6 6 6 6 6 6 6 6 6 6 6 6 6 ",
"6 6 6 6 6 6 6 6 6 6 6 3 3 3 3 3 3 3 3 3 3 3 3 3 3 3 3 3 3 3 3 3 3 3 3 3 3 3 3 3 3 3 3 3 3 3 3 3 3 3 3 3 6 6 6 6 6 6 6 6 6 6 6 6 ",
"6 6 6 6 6 6 6 6 6 6 3 3 3 3 3 3 3 3 3 3 3 3 3 3 3 3 3 3 3 3 3 3 3 3 3 3 3 3 3 3 3 3 3 3 3 3 3 3 3 3 3 3 3 6 6 6 6 6 6 6 6 6 6 6 ",
"6 6 6 6 6 6 6 6 6 3 3 3 3 3 3 3 3 3 3 3 3 3 3 3 3 3 3 3 3 3 3 3 3 3 3 3 3 3 3 3 3 3 3 3 3 3 3 3 3 3 3 3 3 3 6 6 6 6 6 6 6 6 6 6 ",
"6 6 6 6 6 6 6 6 3 3 3 3 3 3 3 3 3 3 3 3 3 3 3 3 3 3 3 3 3 3 3 3 3 3 3 3 3 3 3 3 3 3 3 3 3 3 3 3 3 3 3 3 3 3 3 6 6 6 6 6 6 6 6 6 ",
"6 6 6 6 6 6 6 3 3 3 3 3 3 3 3 3 3 3 3 3 3 3 3 3 3 3 3 3 3 3 3 3 3 3 3 3 3 3 3 3 3 3 3 3 3 3 3 3 3 3 3 3 3 3 3 3 6 6 6 6 6 6 6 6 ",
"6 6 6 6 6 6 3 3 3 3 3 3 3 3 3 3 3 3 3 3 3 3 3 3 3 3 3 3 3 3 3 3 3 3 3 3 3 3 3 3 3 3 3 3 3 3 3 3 3 3 3 3 3 3 3 3 3 6 6 6 6 6 6 6 ",
"6 6 6 6 6 3 3 3 3 3 3 3 3 3 3 3 3 3 3 3 3 3 3 3 3 3 3 3 3 3 3 3 3 3 3 3 3 3 3 3 3 3 3 3 3 3 3 3 3 3 3 3 3 3 3 3 3 3 6 6 6 6 6 6 ",
"6 6 6 6 3 3 3 3 3 3 3 3 3 3 3 3 3 3 3 3 3 3 3 3 3 3 3 3 3 3 3 3 3 3 3 3 3 3 3 3 3 3 3 3 3 3 3 3 3 3 3 3 3 3 3 3 3 3 3 6 6 6 6 6 ",
"6 6 6 3 3 3 3 3 3 3 3 3 3 3 3 3 3 3 3 3 3 3 3 3 3 3 3 3 3 3 3 3 3 3 3 3 3 3 3 3 3 3 3 3 3 3 3 3 3 3 3 3 3 3 3 3 3 3 3 3 6 6 6 6 ",
"6 6 3 3 3 3 3 3 3 3 3 3 3 3 3 3 3 3 3 3 3 3 3 3 3 3 3 3 3 3 3 3 3 3 3 3 3 3 3 3 3 3 3 3 3 3 3 3 3 3 3 3 3 3 3 3 3 3 3 3 3 6 6 6 ",
"6 3 3 3 3 3 3 3 3 3 3 3 3 3 3 3 3 3 3 3 3 3 3 3 3 3 3 3 3 3 3 3 3 3 3 3 3 3 3 3 3 3 3 3 3 3 3 3 3 3 3 3 3 3 3 3 3 3 3 3 3 3 6 6 ",
"3 3 3 3 3 3 3 3 3 3 3 3 3 3 3 3 3 3 3 3 3 3 3 3 3 3 3 3 3 3 3 3 3 3 3 3 3 3 3 3 3 3 3 3 3 3 3 3 3 3 3 3 3 3 3 3 3 3 3 3 3 3 3 6 ",
"3 3 3 3 3 3 3 3 3 3 3 3 3 3 3 3 3 3 3 3 3 3 3 3 3 3 3 3 3 3 3 3 3 3 3 3 3 3 3 3 3 3 3 3 3 3 3 3 3 3 3 3 3 3 3 3 3 3 3 3 3 3 3 3 ",
"3 3 3 3 3 3 3 3 3 3 3 3 3 3 3 3 3 3 3 3 3 3 3 3 3 3 3 3 3 3 3 3 3 3 3 3 3 3 3 3 3 3 3 3 3 3 3 3 3 3 3 3 3 3 3 3 3 3 3 3 3 3 3 3 ",
"3 3 3 3 3 3 3 3 3 3 3 3 3 3 3 3 3 3 3 3 3 3 3 3 3 3 3 3 3 3 3 3 3 3 3 3 3 3 3 3 3 3 3 3 3 3 3 3 3 3 3 3 3 3 3 3 3 3 3 3 3 3 3 3 "
};
