/* XPM */
static char *_07982ff642941048b0caa9e595933c31hsdWxnwwbmcua9a[] = {
/* columns rows colors chars-per-pixel */
"64 64 130 2 ",
"   c #020202",
".  c #0B0201",
"X  c #020903",
"o  c #0B0B04",
"O  c #04030A",
"+  c #0A040A",
"@  c #03090D",
"#  c #0B0B0B",
"$  c #130301",
"%  c #1C0100",
"&  c #150A03",
"*  c #190803",
"=  c #160D0A",
"-  c #15110F",
";  c #18130A",
":  c #0F0F11",
">  c #130E11",
",  c #0F1711",
"<  c #141414",
"1  c #191511",
"2  c #1F1815",
"3  c #1B1C1B",
"4  c #240100",
"5  c #280000",
"6  c #2B0200",
"7  c #230804",
"8  c #220208",
"9  c #2E0508",
"0  c #2B0A0A",
"q  c #340001",
"w  c #3B0203",
"e  c #38090A",
"r  c #20150E",
"t  c #2E140E",
"y  c #360C14",
"u  c #261210",
"i  c #2D1714",
"p  c #251C14",
"a  c #291D15",
"s  c #21171B",
"d  c #23191B",
"f  c #20231B",
"g  c #2B231F",
"h  c #2C261C",
"j  c #31231F",
"k  c #332A1D",
"l  c #2E2523",
"z  c #2C2D2C",
"x  c #312020",
"c  c #342924",
"v  c #382F25",
"b  c #3A3027",
"n  c #3C362E",
"m  c #383633",
"M  c #383D37",
"N  c #393939",
"B  c #400202",
"V  c #490200",
"C  c #440008",
"Z  c #550303",
"A  c #5B0200",
"S  c #520D06",
"D  c #5E0A00",
"F  c #590D0F",
"G  c #401B14",
"H  c #541214",
"J  c #630100",
"K  c #690200",
"L  c #6A0C09",
"P  c #7E100A",
"I  c #751214",
"U  c #42211A",
"Y  c #441820",
"T  c #542D26",
"R  c #44352E",
"E  c #4B3D2E",
"W  c #4F3D2D",
"Q  c #413A31",
"!  c #613E32",
"~  c #4E4037",
"^  c #524237",
"/  c #584B45",
"(  c #514048",
")  c #5F5048",
"_  c #555D55",
"`  c #5D5F57",
"'  c #5C5C5C",
"]  c #654E43",
"[  c #694B44",
"{  c #7E5343",
"}  c #70594F",
"|  c #765F57",
" . c #7A5E5A",
".. c #71604E",
"X. c #666255",
"o. c #626759",
"O. c #840B16",
"+. c #9D1819",
"@. c #DC342F",
"#. c #865E4F",
"$. c #BD4545",
"%. c #80685F",
"&. c #837A6B",
"*. c #8A7F73",
"=. c #878276",
"-. c #9A8877",
";. c #9F9186",
":. c #A39784",
">. c #AAACA7",
",. c #BBABA1",
"<. c #E9A693",
"1. c #F5B39C",
"2. c #C9B9B0",
"3. c #EEB6A2",
"4. c #DBC7B6",
"5. c #D2C3BA",
"6. c #FBC2AB",
"7. c #DDCCC1",
"8. c #E9D6C9",
"9. c #E9D9CE",
"0. c #EFDDCE",
"q. c #FADFC5",
"w. c #F1E0CF",
"e. c #E6E1D3",
"r. c #EFE3D0",
"t. c #F1E0D1",
"y. c #F8E4D2",
"u. c #F8E7D8",
"i. c #F7E9D8",
"p. c #F7EDE0",
/* pixels */
"B B B B B B B B B B B B B B B B B B B B B B B B B B B B B B B B B B B B B B B B B B B B B B B B B B B B B B B B B B B B B B B B ",
"B B B B B B B B B B B B B B B B B B B B B B B B B B B B B B B B B B B B B B B B B B B B B B B B B B B B B B B B B B B B B B B B ",
"B B B B B B B B B B B O       O O O B B B B B B B       O               O     O B B B B B B B B B B B B B B B B B B B B B B B B ",
"Z B B B B B B B O O O O               B B B B                                     O   # B B B B B B B B B B B B B B B B B B B Z ",
"Z Z B B B B B B # O O                                                                   : B B B B B B B B B B B B B B B B B Z Z ",
"Z Z Z B B B B #   O                                                               O     O # # B B B B B B B B B B B B B B Z Z Z ",
"Z Z Z Z B B 3 O                                                                         O O # O B B B B B B B B B B B B Z Z Z Z ",
"Z Z Z Z Z B #                                                                             O O : # B B B B B B B B B B Z Z Z Z Z ",
"Z Z Z Z Z Z #                                                                   + + + O   . . r Q n B B B B B B B B Z Z Z Z Z Z ",
"Z Z Z Z Z <                                   @.                                  + O # - p.p.p.p.p.h B B B B B B Z Z Z Z Z Z Z ",
"Z Z Z Z Z < O                                 @.@.                                O   3 >.p.p.p.p.p.p.m B B B B Z Z Z Z Z Z Z Z ",
"Z Z Z Z Z z O                 . . .           @.@.                              X X X M ` p.p.p.p.p.p.1 B B B Z Z Z Z Z Z Z Z Z ",
"Z Z Z Z Z ' O                 . . .       X $ @.@.                          . . o       ; . & E p.p.p.. B B Z Z Z Z Z Z Z Z Z Z ",
"Z Z Z Z Z Z Z O O O             O O     . $ @.@.@..   O               O     = & p.p.p.p.p.p.p.p.p.p.p.b B Z Z Z Z Z Z Z Z Z Z Z ",
"Z Z Z Z Z Z Z   O                     . $ 4 @.@.@..   O O               # . . R p.p.p.p.p.p.p.p.p.p.p.p.  Z Z Z Z Z Z Z Z Z Z Z ",
"Z Z Z Z Z Z Z Z O   O                 $ 5 @.@.@.@.      O       O   O O + . r 2.p.p.p.p.p.p.p.p.p.p.p.p.. Z Z Z Z Z Z Z Z Z Z Z ",
"Z Z Z Z Z Z Z Z #                   . 4 @.@.@.@..       O       O O O @   . / p.p.p.p.p.p.p.p.p.p.p.p.p.& Z Z Z Z Z Z Z Z Z Z Z ",
"Z Z Z Z Z Z Z Z Z O O             O $ @.@.@.@.5         O         O O O . a 7.p.p.p.p.p.p.p.p.p.p.p.p.p.; Z Z Z Z Z Z Z Z Z Z Z ",
"Z Z Z Z Z Z Z Z Z O O             . @.@.@.@.8 O                   O O . & -.p.p.p.p.p.p.p.p.p.p.p.p.p.p.2 Z Z Z Z Z Z Z Z Z Z Z ",
"Z Z Z Z Z Z Z Z Z + O             @.@.@.. .                       + + . :.p.p.p.p.p.p.p.p.p.p.p.p.p.p.p.g Z Z Z Z Z Z Z Z Z Z Z ",
"Z Z Z Z Z Z Z Z Z                                                 O . k r.p.p.p.p.p.p.p.p.p.p.p.p.p.p.p.l Z Z Z Z Z Z Z Z Z Z Z ",
"Z Z Z Z Z Z Z Z Z +                                                 . *.i.p.p.p.p.p.p.p.p.p.p.p.p.p.p.p.c Z Z Z Z Z Z Z Z Z Z Z ",
"Z Z Z Z Z Z Z Z Z Z +                                           O + . 5.t.8.. . p.p.p.p.p.p.p.p.p.p.p.p.j Z Z Z Z Z Z Z Z Z Z Z ",
"Z Z Z Z Z Z Z Z Z Z                   . . .                   O O O + p.p.p.%.. . . . . 9.p.p.p.p.p.p.p.v Z Z Z Z Z Z Z Z Z Z Z ",
"Z Z Z Z Z Z Z Z Z Z Z #                                       O     n p.p.p.p.p.p.p.0.. . . . W p.p.p.p.~ - Z Z Z Z Z Z Z Z Z Z ",
"Z Z Z Z Z Z Z Z Z Z Z O # O                                         &.p.p.p.p.p.p.p.p.p.p.p.. . p.p.p.p.p.o Z Z Z Z Z Z Z Z Z Z ",
"Z Z Z Z Z Z Z Z Z Z Z _ #   O O                               O . $ 4.p.p.p.p.p.p.p.p.p.p.p.p.p.p.p.p.p.p.  Z Z Z Z Z Z Z Z Z Z ",
"Z Z Z Z Z Z Z Z Z Z Z Z 3 3                                   O   ) y.p.p.p.p.p.p.p.p.p.p.p.p.p.p.p.p.p.p.  Z Z Z Z Z Z Z Z Z Z ",
"Z Z Z Z Z Z Z Z Z Z Z Z Z   O   O                             . = ,.p.p.p.p.p.p.p.p.6.p.p.p.p.p.p.p.p.p.p.. Z Z Z Z Z Z Z Z Z Z ",
"Z Z Z Z Z Z Z Z Z Z Z Z Z Z #   #                           . $ ;.w.p.p.p.p.p.p.p.<.$.$.$.p.p.p.p.p.p.p.p.$ Z Z Z Z Z Z Z Z Z Z ",
"Z Z Z Z Z Z Z Z Z Z Z Z Z Z Z # O #       O           +   o . ^ u.p.p.p.p.p.p.p.p.<.$.$.$.1.p.p.p.p.p.p.p.& Z Z Z Z Z Z Z Z Z Z ",
"Z Z Z Z Z Z Z Z Z Z Z Z Z Z Z Z z O O                 O   . p p.p.p.p.p.p.p.p.p.p.3.$.$.$.6.p.p.p.p.p.p.p l Z Z Z Z Z Z Z Z Z Z ",
"Z Z Z Z Z Z Z Z Z Z Z Z Z Z Z Z Z ' O O         O         ; p.p.p.p.p.p.p.p.p.p.p.p.p.p.p.p.p.p.p.p.p.p.. Z Z Z Z Z Z Z Z Z Z Z ",
"Z Z Z Z Z Z Z Z Z Z Z Z Z Z Z Z Z Z N   #   + . O O   <   =.p.p.p.p.p.p.p.p.p.p.p.p.p.p.p.p.p.p.p.p.p.. Z Z Z Z Z Z Z Z Z Z Z Z ",
"Z Z Z Z Z Z Z Z Z Z Z Z Z Z Z Z Z Z Z Z N #   . + O # O # e.p.p.p.p.p.p.p.p.p.p.p.p.p.p.p.p.p.p.p.v . Z Z Z Z Z Z Z Z Z Z Z Z Z ",
"Z Z Z Z Z Z Z Z Z Z Z Z Z Z Z Z Z Z Z Z Z B Z Z Z f   > s ! { #...}  .o.X.| [ ] T U 7 * . + z _ Z Z Z Z Z Z Z Z Z Z Z Z Z Z Z Z ",
"Z Z Z Z Z Z Z Z Z Z Z Z Z Z Z Z Z Z Z Z Z Z B Z Z Z B s % @.@.@.@.* . $ $ $ 7 @.@.@.@.% Z Z Z Z Z Z Z Z Z Z Z Z Z Z Z Z Z Z Z Z ",
"Z Z Z Z Z Z Z Z Z Z Z Z Z Z Z Z Z Z Z Z Z Z B Z Z Z Z x w @.@.@.@.G @.@.@.@.5 O.@.@.@.5 Z Z Z Z Z Z Z Z Z Z Z Z Z Z Z Z Z Z Z Z ",
"Z Z Z Z Z Z Z Z Z Z Z Z Z Z Z Z Z Z Z Z Z Z Z B Z Z Z 0 @.@.@.@.@.Z @.@.@.@.V O.@.@.@.V j Z Z Z Z Z Z Z Z Z Z Z Z Z Z Z Z Z Z Z ",
"Z Z Z Z Z Z Z Z Z Z Z Z Z Z Z Z Z Z Z Z Z Z B B B Z Z q @.@.@.@.@.A @.@.@.@.@.O.@.@.@.L 7 Z Z Z Z Z Z Z Z Z Z Z Z Z Z Z Z Z Z Z ",
"Z Z Z Z Z Z Z Z Z Z Z Z Z Z Z Z Z Z Z Z Z B B B B B 5 K @.@.@.@.A J @.@.@.@.@.Z @.@.@.@.Z Z Z Z Z Z Z Z Z Z Z Z Z Z Z Z Z Z Z Z ",
"Z Z Z Z Z Z Z Z Z Z Z Z Z Z Z Z Z Z Z Z B B B B B B 5 @.@.@.@.@.Z @.@.@.@.@.@.J @.@.@.@.@.Z Z Z Z Z Z Z Z Z Z Z Z Z Z Z Z Z Z Z ",
"Z Z Z Z Z Z Z Z Z Z Z Z Z Z Z Z Z Z Z B B B B B B B q @.@.@.@.@.K @.@.@.@.@.@.O.P @.@.@.@.( Z Z Z Z Z Z Z Z Z Z Z Z Z Z Z Z Z Z ",
"Z Z Z Z Z Z Z Z Z Z Z Z Z Z Z Z Z Z B B B B B B B t D @.@.@.@.@.A @.@.@.@.@.@.@.K @.@.@.@.i B Z Z Z Z Z Z Z Z Z Z Z Z Z Z Z Z Z ",
"Z Z Z Z Z Z Z Z Z Z Z Z Z Z Z Z Z B B B B B B B B q @.@.@.@.@.@.Z J @.@.@.@.@.@.J @.@.@.@.7 B B Z Z Z Z Z Z Z Z Z Z Z Z Z Z Z Z ",
"Z Z Z Z Z Z Z Z Z Z Z Z Z Z Z Z B B B B B B B B y @.@.@.@.@.@.@.@.K @.@.@.@.@.@.A @.@.@.@.@.4 B B Z Z Z Z Z Z Z Z Z Z Z Z Z Z Z ",
"Z Z Z Z Z Z Z Z Z Z Z Z Z Z Z B B B B B B B B B q @.@.@.@.@.@.@.@.J @.@.@.@.@.@.A @.@.@.@.@.q B B B Z Z Z Z Z Z Z Z Z Z Z Z Z Z ",
"Z Z Z Z Z Z Z Z Z Z Z Z Z Z B B B B B B B B B B q @.@.@.@.@.@.@.@.Z @.@.@.@.@.@.Z @.@.@.@.@.e B B B B Z Z Z Z Z Z Z Z Z Z Z Z Z ",
"Z Z Z Z Z Z Z Z Z Z Z Z Z B B B B B B B B B B B 5 H I +.@.@.@.@.L V w S V V q q C @.@.@.@.@.B B B B B B Z Z Z Z Z Z Z Z Z Z Z Z ",
"Z Z Z Z Z Z Z Z Z Z Z Z B B B B B B B B B B B B B B B B V @.@.@.F 4 q.q.q.q.q.d Y @.@.@.V * B B B B B B B Z Z Z Z Z Z Z Z Z Z Z ",
"Z Z Z Z Z Z Z Z Z Z Z B B B B B B B B B B B B B B B B B u q q q 9 . q.q.q.q.q., . % % % B B B B B B B B B B Z Z Z Z Z Z Z Z Z Z ",
"Z Z Z Z Z Z Z Z Z Z B B B B B B B B B B B B B B B B B B B B B B @   @ q.q.q.  X B B B B B B B B B B B B B B B Z Z Z Z Z Z Z Z Z ",
"Z Z Z Z Z Z Z Z Z B B B B B B B B B B B B B B B B B B B B B B B   O   #     O   B B B B B B B B B B B B B B B B Z Z Z Z Z Z Z Z ",
"Z Z Z Z Z Z Z Z B B B B B B B B B B B B B B B B B B B B B B B B + O       O # O B B B B B B B B B B B B B B B B B Z Z Z Z Z Z Z ",
"Z Z Z Z Z Z Z B B B B B B B B B B B B B B B B B B B B B B B B B B O   O O O O O B B B B B B B B B B B B B B B B B B Z Z Z Z Z Z ",
"Z Z Z Z Z Z B B B B B B B B B B B B B B B B B B B B B B B B B B B             O B B B B B B B B B B B B B B B B B B B Z Z Z Z Z ",
"Z Z Z Z Z B B B B B B B B B B B B B B B B B B B B B B B B B B B B   O           B B B B B B B B B B B B B B B B B B B B Z Z Z Z ",
"Z Z Z Z B B B B B B B B B B B B B B B B B B B B B B B B B B B B B               B B B B B B B B B B B B B B B B B B B B B Z Z Z ",
"Z Z Z B B B B B B B B B B B B B B B B B B B B B B B B B B B B B B             B B B B B B B B B B B B B B B B B B B B B B B Z Z ",
"Z Z B B B B B B B B B B B B B B B B B B B B B B B B B B B B B B B # O   O O O B B B B B B B B B B B B B B B B B B B B B B B B Z ",
"Z B B B B B B B B B B B B B B B B B B B B B B B B B B B B B B B B # # O # O O B B B B B B B B B B B B B B B B B B B B B B B B B ",
"B B B B B B B B B B B B B B B B B B B B B B B B B B B B B B B B B B B # O # B B B B B B B B B B B B B B B B B B B B B B B B B B ",
"B B B B B B B B B B B B B B B B B B B B B B B B B B B B B B B B B B B B B B B B B B B B B B B B B B B B B B B B B B B B B B B B ",
"B B B B B B B B B B B B B B B B B B B B B B B B B B B B B B B B B B B B B B B B B B B B B B B B B B B B B B B B B B B B B B B B "
};
