/* XPM */
static char *_00b93c68e9841eef3e8dc615774559bLig6wQHtk7SRjoft[] = {
/* columns rows colors chars-per-pixel */
"64 64 99 2 ",
"   c #010303",
".  c #020807",
"X  c #080F07",
"o  c #02070A",
"O  c #0E000A",
"+  c #00080A",
"@  c #0B0D0D",
"#  c #110B0F",
"$  c #0C100F",
"%  c #181E00",
"&  c #17140F",
"*  c #110F12",
"=  c #001711",
"-  c #0D1213",
";  c #0C1D17",
":  c #0B1C18",
">  c #141514",
",  c #181411",
"<  c #151817",
"1  c #1A1917",
"2  c #13151B",
"3  c #1B161D",
"4  c #151919",
"5  c #1B1C1B",
"6  c #2A1011",
"7  c #221D19",
"8  c #042102",
"9  c #002613",
"0  c #1E201F",
"q  c #2A2414",
"w  c #000424",
"e  c #0A1B22",
"r  c #1C1B20",
"t  c #201929",
"y  c #082523",
"u  c #1F2322",
"i  c #232324",
"p  c #2B2B29",
"a  c #363032",
"s  c #393937",
"d  c #393B38",
"f  c #400202",
"g  c #550303",
"h  c #710E13",
"j  c #696911",
"k  c #4D4F3A",
"l  c #5C5E5D",
"z  c #7F7F7D",
"x  c #AC0404",
"c  c #E0171D",
"v  c #E9161F",
"b  c #DC231E",
"n  c #E2211C",
"m  c #D91624",
"M  c #E31E26",
"N  c #EC1A23",
"B  c #F41720",
"V  c #F81425",
"C  c #FF1F30",
"Z  c #F62123",
"A  c #FA2425",
"S  c #E22038",
"D  c #FB2036",
"F  c #B83A45",
"G  c #E3F01C",
"H  c #EDF725",
"J  c #E2EB36",
"K  c #EBF435",
"L  c #EDF33B",
"P  c #F2FB3E",
"I  c #80817C",
"U  c #909090",
"Y  c #9FA5BD",
"T  c #EC8BEE",
"R  c #E0D4C6",
"E  c #F8DDCC",
"W  c #F3E0CF",
"Q  c #FFE6D7",
"!  c #FBE8D7",
"~  c #FDE6D9",
"^  c #F6E8DF",
"/  c #FBE8D9",
"(  c #FEE9D8",
")  c #F9EBDE",
"_  c #FDEADC",
"`  c #F9ECDC",
"'  c #FFEEDE",
"]  c #FBEAE0",
"[  c #FFEFE2",
"{  c #FFF1E2",
"}  c #FFFAEF",
"|  c #F3F3F5",
" . c #F7F7F5",
".. c #FFF7F1",
"X. c FloralWhite",
"o. c #FFFDF3",
"O. c #F9F9FB",
"+. c #FAFAFC",
"@. c white",
/* pixels */
"f f f f f f f f f f f f f f f f f f f f f f f f f f f f f f f f f f f f f f f f f f f f f f f f f f f f f f f f f f f f f f f f ",
"f f f f f f f f f f f f f f f f f f f f f f f f f f f f f f f f f f f f f f f f f f f f f f f f f f f f f f f f f f f f f f f f ",
"f f f f f f f f f f f f f f f f f f f f f f f f f f f f f f f f f f f f f f f f f f f f f f f f f f f f f f f f f f f f f f f f ",
"g f f f f f f f f f f f f f f f f f f f f f f f f f f f f f f f f f f f f f f f f f f f f f f f f f f f f f f f f f f f f f f g ",
"g g f f f f f f f f f f f f f f f f f f f f f f f f f f f f f f f f f f f f f f f f f f f f f f f f f f f f f f f f f f f f g g ",
"g g g f f f f f f f f f f f f f f f f f f f f f f f f f f f f f f f f f f f f f f f f f f f f f f f f f f f f f f f f f f g g g ",
"g g g g f f f f f f f f f f f f f f f f f f f f f f f f f f f f f f f f f f f f f f f f f f f f f f f f f f f f f f f f g g g g ",
"g g g g g f f f f f f f f f f f f f f f f f f f f f f f f f f f f f f f f f f f f f f f f f f f f f f f f f f f f f f g g g g g ",
"g g g g g g f f f f f f f f f f f f f f f f f f f f f f f f f f f f >   . f f f f f f f f f f @   f f f f f f f f f g g g g g g ",
"g g g g g g g f f f f f f f f f f f f f f f f f f f f f f f f f f f o + +   f f f f f f f f > + + > f f f f f f f g g g g g g g ",
"g g g g g g g g f f f f f f f f f f f f f f f f f f f f f f f f f f + + + + @ f f + + + f f o + + < f f f f f f g g g g g g g g ",
"g g g g g g g g g f f f f f f f f f f f f f f f f f f f f f f f f f o o + o + + + + + + + o . 4 + > f f f f f g g g g g g g g g ",
"g g g g g g g g g g f f f f f f f f f f f f f f f f f f f f f f f f f o + + + + + + + + + + + + o f f f f f g g g g g g g g g g ",
"g g g g g g g g g g g f f f f f f f f f f f f f f f f f f f f f f f . + + o + + + + + + + + . + + 5 f f f g g g g g g g g g g g ",
"g g g g g g g g g g g g f f f f f f f f f f f f f f f f f f f f f f + w i G G + + + + + + j J H q . f f g g g g g g g g g g g g ",
"g g g g g g g g g g g g g f f f f f f f f f f f f f f f f f f f f f + % L   i G + T T T + K > t P + f g g g g g g g g g g g g g ",
"g g g g g g g g g g g g g g f f f f f f f f f f f f f f f f f f f f + o X 3 + + + U T l +   1 2   + g g g g g g g g g g g g g g ",
"g g g g g g g g g g g g g g g f f f f f f f f f f f f f f f f . f f   + + + + +     l - + + + + + . s s g g g g g g g g g g g g ",
"g g g g g g g g g g g g g g g g f f f f f f f f f f f f f f f f f . d o + + + + + + . + + + + + + l 4 g g g g g g g g g g g g g ",
"g g g g g g g g g g g g g g g g g f f f f f f f f f f f f f f f 0 f f 0 o + + + + + + + + + + + + g g g 5 g g g g g g g g g g g ",
"g g g g g g g g g g g g g g g g g g f f f f f f f f f 5 s f f f f f f f f f + o + + + + + + > g g g g g g g g g 2 g g g g g g g ",
"g g g g g g g g g g g g g g g g g g g f f f f f 5 f f @ o f f f f f f f f f f   > @ @ > > g g g g g g g g g g g o g g > > g g g ",
"g g g g g g g g g g g g g g g g g g g g f f f f > o f + o 4 g g g g g g f f f + + + + + + g g g g g g g g g g o o 4 + + g g g g ",
"g g g g g g g g g g g g g g g g g g g g g f f f f o o + + + g g g g g g g g f + + + + + + g g g g g g g g g > + + + o > g g g g ",
"g g g g g g g g g g g g g g g g g g g g g g f f 5   + + + + ; g g g g g g 5 + + + + + + +   . > g g g g g : + + + +   5 g g g g ",
"g g g g g g g g g g g g g g g g g g g g g g   + + + + + + + N 6 f f f u o + + + + + + + + + + + . g g g g v + + + + + + o 5 g g ",
"g g g g g g g g g g g g g g g g g g g g g g f - o + + + + N N N   f o + + + + + + + + + + + + + + + 5 5   M 4 + + + + + . g g g ",
"g g g g g g g g g g g g g g g g g g g g g g f g g @ + + N N N o 8 = + + + + + + o + + + + + + + + + o   o N A + + + + > g g g g ",
"g g g g g g g g g g g g g g g g g g g g g f g g + + > f f       + + o + < / Q Q Q Q Q Q Q Q ( [ 2 + + + o o s g g < + +   g g g ",
"g g g g g g g g g g g g g g g g g g g g g f g g g f f f f   . + + + 5 ( Q Q Q Q Q Q Q Q Q Q Q Q ~ - + + + i g g g g g g g g g g ",
"g g g g g g g g g g g g g g g g g g g g g f g g g f f f g   o + + + Q Q Q Q Q Q Q Q Q Q Q Q Q Q Q ~ I o + @ g g g g g g g g g g ",
"g g g g g g g g g g g g g g g g g g g g g f g g g f f f g   + + Q ~ Q Q Q Q Q Q Q Q Q Q Q Q Q Q Q ~ Q a o o 5 g g g g g g g g g ",
"g g g g g g g g g g g g g g g g g g g g g f g g g f f f 5 > o Q > + + @ ` Q Q Q Q Q Q Q Q Q Q Q , + + @ ' + o g g g g g g g g g ",
"g g g g g g g g g g g g g g g g g g g g g f g g g f f f 5   Q Q   5 + + o + Q Q Q Q Q Q Q Q 5 o + < @.- Q + + @ g g g g g g g g ",
"g g g g g g g g g g g g g g g g g g g g g f g g g f f f   . Q   +.O.@.5 + o   Q Q Q Q Q Q 5 o + < O.O.| < o + 5 g g g g g g g g ",
"g g g g g g g g g g g g g g g g g g g g g f g g g g f f     Q < O.O.O.O.| 5 Q Q Q Q Q Q Q { > @.O.O.O.O.@.4 + $ g g g g g g g g ",
"g g g g g g g g g g g g g g g g g g g g g g f g g g f f   . X.5 O.O.+ 5 O.5 Q Q Q Q Q Q Q ~   O.O.+ 5 O.O.> + > g g g g g g g g ",
"g g g g g g g g g g g g g g g g g g g g g g f g g g g f     Q   O.O.5 5 O.5 Q Q Q Q Q Q Q Q 5 @.O.5 5 O.@.@ + g g g g g g g g g ",
"g g g g g g g g g g g g g g g g g g g g g g f f g g g g g   o / 4 O.O.O.2 R Q Q Q Q Q Q Q Q ( 4 O.O.O.O.* + @ g g g g g g g g g ",
"g g g g g g g g g g g g g g g g g g g g g f f f f g g g g g + o.' o r @ ! Q Q Q Q Q Q Q Q Q Q E   5 # o [ + @ g g g g g g g g g ",
"g g g g g g g g g g g g g g g g g g g g f f f f f f g g g g g o . ~ Q Q Q Q Q / _ _ _ _ ] Q Q Q Q Q ~ Q   g g g g g g g g g g g ",
"g g g g g g g g g g g g g g g g g g g f f f f f f f f f g g g g +   Q Q Q Q Q ^ + + + + o Q Q Q Q ~ W + $ g g g g g g g g g g g ",
"g g g g g g g g g g g g g g g g g g f f f f f f f f f f f f f f f < } ~ Q Q Q Q Q Q Q Q Q Q Q Q ( >   g g g g g g g g g g g g g ",
"g g g g g g g g g g g g g g g g g f f f f f f f f f f f f f f f f f > o 7 ) Q ~ ~ Q ~ Q Q Q ..>   g g g g g g g g g g g g g g g ",
"g g g g g g g g g g g g g g g g f f f f f f f f f f f f f f f f f f > 5 o + + @ @ + + + + + + + o g g g g g g g g g g g g g g g ",
"g g g g g g g g g g g g g g g f f f f f f f f f f f f f f f f f f f . . . + 4 o + + + + + + + + + g g g g g g g g g g g g g g g ",
"g g g g g g g g g g g g g g f f f f f f f f f f f f f f f f f f f f + o c N k 4 + + + + o + + + + g g g g g g g g g g g g g g g ",
"g g g g g g g g g g g g g f f f f f f f f f f f f f f f f f f @ O - > S N N M e V + V V & + + + + f g g g g g g g g g g g g g g ",
"g g g g g g g g g g g g f f f f f f f f f f f f f f f f f f   D N N 9 C N N M y   M N B ; + + + + f f g g g g g g g g g g g g g ",
"g g g g g g g g g g g f f f f f f f f f f f f f f f f f f f   Z   N A O b N F 4 . m x + + + + + > f f f g g g g g g g g g g g g ",
"g g g g g g g g g g f f f f f f f f f f f f f f f f             o N N ; > o 4 + + + + + + + + 5 f f f f f g g g g g g g g g g g ",
"g g g g g g g g g f f f f f f f f f f f f f f f f f     5 5   p @ n h o f 4 + + + + + + + + < f f f f f f f g g g g g g g g g g ",
"g g g g g g g g f f f f f f f f f f f f f f f f f f f     5   p       f f < + + + f > o + + o f f f f f f f f g g g g g g g g g ",
"g g g g g g g f f f f f f f f f f f f f f f f f f f f   s Y       f f f f > + + + f 5 + + + o f f f f f f f f f g g g g g g g g ",
"g g g g g g f f f f f f f f f f f f f f f f f f f f   s z s 5 5   f f f f > + + + f 5 + + + o f f f f f f f f f f g g g g g g g ",
"g g g g g f f f f f f f f f f f f f f f f f f f f   s z s     5   f f f f $ + + + f > + + + o f f f f f f f f f f f g g g g g g ",
"g g g g f f f f f f f f f f f f f f f f f f f f   s  .s   f f     f f f f f + + + f > + + + + f f f f f f f f f f f f g g g g g ",
"g g g f f f f f f f f f f f f f f f f f f f f   s z s   f f f f f f f f f f * > f f f o + o f f f f f f f f f f f f f f g g g g ",
"g g f f f f f f f f f f f f f f f f f f f f   s  .s   f f f f f f f f f f f f f f f f f f f f f f f f f f f f f f f f f f g g g ",
"g f f f f f f f f f f f f f f f f f f f f   s z s   f f f f f f f f f f f f f f f f f f f f f f f f f f f f f f f f f f f f g g ",
"f f f f f f f f f f f f f f f f f f f f f   z s   f f f f f f f f f f f f f f f f f f f f f f f f f f f f f f f f f f f f f f g ",
"f f f f f f f f f f f f f f f f f f f f f       f f f f f f f f f f f f f f f f f f f f f f f f f f f f f f f f f f f f f f f f ",
"f f f f f f f f f f f f f f f f f f f f f f f f f f f f f f f f f f f f f f f f f f f f f f f f f f f f f f f f f f f f f f f f ",
"f f f f f f f f f f f f f f f f f f f f f f f f f f f f f f f f f f f f f f f f f f f f f f f f f f f f f f f f f f f f f f f f "
};
