/* XPM */
static char *_b43d6d5245a4f56c070280b85db9121tXEMowi3zhDj5nPM[] = {
/* columns rows colors chars-per-pixel */
"64 64 167 2 ",
"   c #060201",
".  c #0B0101",
"X  c #0D0803",
"o  c #130101",
"O  c #1C0302",
"+  c #150C05",
"@  c #1A0D05",
"#  c #0C1204",
"$  c #171006",
"%  c #1A1207",
"&  c #1C1508",
"*  c #1E190A",
"=  c #1E1211",
"-  c #250201",
";  c #2D0202",
":  c #2D0903",
">  c #340302",
",  c #3C0302",
"<  c #390A05",
"1  c #2D1805",
"2  c #231509",
"3  c #221D0C",
"4  c #2D1C09",
"5  c #371208",
"6  c #33180A",
"7  c #2D1A10",
"8  c #112006",
"9  c #192308",
"0  c #172908",
"q  c #182B08",
"w  c #1C330A",
"e  c #24210D",
"r  c #2B2308",
"t  c #322708",
"y  c #35280F",
"u  c #243D0C",
"i  c #3A300A",
"p  c #2F2214",
"a  c #392315",
"s  c #253B10",
"d  c #303B1A",
"f  c #3E3C18",
"g  c #400202",
"h  c #4D0303",
"j  c #420A06",
"k  c #440D09",
"l  c #550303",
"z  c #570E05",
"x  c #45130C",
"c  c #48170F",
"v  c #571005",
"b  c #581707",
"n  c #581F08",
"m  c #4A1B12",
"M  c #592509",
"N  c #4D380C",
"B  c #4C2116",
"V  c #4C2618",
"C  c #4D2C1B",
"Z  c #502517",
"A  c #502618",
"S  c #56301E",
"D  c #4F3421",
"F  c #4F3C25",
"G  c #553622",
"H  c #523A24",
"J  c #712C2D",
"K  c #613220",
"L  c #7D3D3F",
"P  c #25440D",
"I  c #2B440F",
"U  c #274B0E",
"Y  c #2D4B0F",
"T  c #304F0F",
"R  c #2E510F",
"E  c #284710",
"W  c #384817",
"Q  c #334B1A",
"!  c #315512",
"~  c #315911",
"^  c #366113",
"/  c #3A6614",
"(  c #3C6B15",
")  c #5E4D11",
"_  c #435D12",
"`  c #525411",
"'  c #5F5011",
"]  c #426717",
"[  c #407517",
"{  c #437C18",
"}  c #4B7D18",
"|  c #647E19",
" . c #414426",
".. c #55432A",
"X. c #5A432A",
"o. c #544B2E",
"O. c #445530",
"+. c #5F5233",
"@. c #645736",
"#. c #507A25",
"$. c #58663F",
"%. c #656740",
"&. c #636E45",
"*. c #85484B",
"=. c #8A4E51",
"-. c #8D5357",
";. c #99676A",
":. c #9E6C70",
">. c #A6787B",
",. c #A87B7F",
"<. c #47821A",
"1. c #4C841A",
"2. c #4F8D1C",
"3. c #528119",
"4. c #528D1B",
"5. c #4F901C",
"6. c #55961E",
"7. c #569D1F",
"8. c #599E1F",
"9. c #639C1F",
"0. c #68981E",
"q. c #64A11F",
"w. c #519021",
"e. c #589C21",
"r. c #5BA521",
"t. c #5FA922",
"y. c #66A620",
"u. c #69A721",
"i. c #64AB21",
"p. c #6AAC21",
"a. c #64B423",
"s. c #69B424",
"d. c #65BA24",
"f. c #6ABC24",
"g. c #6BBB2A",
"h. c #6BC225",
"j. c #6CC226",
"k. c #6BC626",
"l. c #6DC727",
"z. c #6ECA27",
"x. c #6DCC27",
"c. c #6CC428",
"v. c #6ECB29",
"b. c #6ECD28",
"n. c #738653",
"m. c #9F7C80",
"M. c #AA7C80",
"N. c #A58489",
"B. c #AF848A",
"V. c #B28A8E",
"C. c #B48C91",
"Z. c #B6949A",
"A. c #B79EA4",
"S. c #BBA0A6",
"D. c #BAA3A8",
"F. c #C8A8AD",
"G. c #C6AEB5",
"H. c #CBAEB4",
"J. c #CDB1B7",
"K. c #CFB4BA",
"L. c #D4BCC3",
"P. c #DAC4CB",
"I. c #DCCAD1",
"U. c #E0C9D1",
"Y. c #E5D3DC",
"T. c #E8D6DE",
"R. c #EADBE2",
/* pixels */
"g g g g g g g g g g g g g g g g g g g g g g g g C C @.g g g g g g g g g g g F g g g g g g g g g g g g g g g g g g g g g g g g g ",
"g g g g g g g g g g g g g g g g g g g g g m B o.g @.g g g g C g x g g G g g A g g g g g g g g g g g g g g g g g g g g g g g g g ",
"g g g g g g g g g g g g g g g g g g g g g g g %.n.G g H x g g g m g g g j g x g g g g g g g g g g g g g g g g g g g g g g g g g ",
"l g g g g g g g g g g g g g g g g g g g x g g &.$.G g j g x g g g g g g x X.B g g g g g g g g g g g g g g g g g g g g g g g g l ",
"l l g g g g g g g g g g g g g g g g g j g x j m c k B g g m k j g g g H B k g g g g g g g g g g g g g g g g g g g g g g g g l l ",
"l l l g g g g g g g g g g g g g g g g g g j j j m S k c g g g g j x x k g g g g g g g g g g g g g g g g g g g g g g g g g l l l ",
"l l l l g g g g g g g g g g g g g g x D g j , , y 4 f 1 , c x g j g g g g g g g g g g g g g g g g g g g g g g g g g g g l l l l ",
"l l l l l g g g g g g g g g g g g g g Z g : t _ 2.2.2.w.#.4 a m g g g g g g g g g g g g g g g g g g g g g g g g g g g l l l l l ",
"l l l l l l g g g g g g g g g g g g g k , r 8.d.l.f.s.c.f.t.@ k j g g g k g g g g g g g g g g g g g g g g g g g g g l l l l l l ",
"l l l l l l l g g g g g g g g g g g g H < 3.k.l.b.f.g.l.b.x.] < g g g k g g g g g g g g g g g g g g g g g g g g g l l l l l l l ",
"l l l l l l l l g g g g g g g g g g X.B W e.4.( r.s.l.7.[ 6.2.2 k j , > w q w w q > , g g g g g g g g g g g g g l l l l l l l l ",
"l l l l l l l l l g g g g g g g j j g g t 7.s   <.h.l.{ # 9 r.d m o I 1.f.f.j.s.s.1.9 O g g g g g g g g g g g l l l l l l l l l ",
"l l l l l l l l l l g g g g g g g g g g 5 4.1.^ t.f.s.t.( <.1.O.o.u z.l.z.z.9.f.l.z.l.+ , g g g g g g g g g l l l l l l l l l l ",
"l l l l l l l l l l l g g g g g g g g g , i _ z.f.4.} f.f._ f &. .d.z.l.b.z.y.s.b.b.x.{ > g g g g g g g g l l l l l l l l l l l ",
"l l l l l l l l l l l l g g g g g g g g g , : h.1.a.t.7.r.: V G E f.8.{ t.y.j.b.6.<.i.8.# g g g g g g g l l l l l l l l l l l l ",
"l l l l l l l l l l l l l g g g g g g g g g > T u ~ R P Y , C g U v.#   / l.l.z.u   # z.0 g g g g g g l l l l l l l l l l l l l ",
"l l l l l l l l l l l l l l g g g g g g g g g g g g g g g g g +.I b.Q   5.s.f.l.<.  u a.8 g g g g g l l l l l l l l l l l l l l ",
"l l l l l l l l l l l l l l l g g g g g g g g g g g g g g g g g a d.v.k.f.z.s.q.j.k.v.4.> g g g g l l l l l l l l l l l l l l l ",
"l l l l l l l l l l l l l l l l g g g g g g g g g g g g g g g m ..p Q z.f.y.X h.f.d.r ; g g g g l l l l l l l l l l l l l l l l ",
"l l l l l l l l l l l l l l l l l g g g g g g g g g g g g g c g g k 7 c./ h.h.a.1.r.> g g g g l l l l l l l l l l l l l l l l l ",
"l l l l l l l l l l l l l l l l l l g g g g g g g g g g g g g C g V 5 ! w ~ ! Y P T , g g g l l l l l l l l l l l l l l l l l l ",
"l l l l l l l l l l l l l l l l l l l g g g g g g g g g g g g g g g g g k c g c x g m g g l l l l l l l l l l l l l l l l l l l ",
"l l l l l l l l l l l l l l l l l l l l g g g g g g g g l l l l l l l l g g g k c g j g l l l l l l l l l l l l l l l l l l l l ",
"l l l l l l l l l l l l l l l l l l l l l g g g g g l l l l l l l l l l l l g g , , F l l l l l l l l l l l l l P.l l l l l l l ",
"l l l l l l l l l l l l l l l l l l l l l l g g g l l l l l l l l l l l l g l g g g K l l l l l l l l l l l l M.o O l l l l l l ",
"l l l l l l l l l l l l z M l l l l I.o e 3 3 3 3 l l Y.e + X , g g T.@ e e l l g l l l l l l l l l l l l T.=.  e e - l l l l l ",
"l l l l l l l l l l l l l z l l l l ,.% 3 * 3 e e l l Z.3 3 e g g g Y.e e e l l l g l l l l l l l l l l T.h 2 e e . h l l l l l ",
"l l l l l l l l l l l l l l l l l l H.% e e e e e l g I.* e e g g g Y.e e e l l l g g l l l l l l l l M.> e e e 2 l l l l l l l ",
"l l l l l l l l l l Z.L.U.P.P.F.B.>.;.+ e e 3 2 e l g S.3 e e l l l I.e 3 e l l L.% e 3 l l l l l l J @ * e e * l l l l l l l l ",
"l l l l l l l l l l V.+ e @ e 3 3 * e & e e e 2 e g g L.e 3 e l l l J.e 3 e g l R.e e e l l l l l C.. 3 e 3 - l l l l l l l l l ",
"l l l l l l l l l l -.& 2 3 3 e o e e + 3 3 e 2 e g g G.3 e e l l l P.e e e g l U.3 e e l l l l :.= 3 e 2 , l l l l l l l l l l ",
"l l l l l l l l l l L * e 3 + 2 * e 3 * . * e 3 e N.T.I.2 e e L.P.T.R.e 3 e m.P.H.3 e e P.*.B.Y.O 3 3 * l l l l l l l l l l l l ",
"l l l l l l I.J.L.K.U.% e 3 2 3 e e e 2   . e ] e   X & & e e   3 + * e e e % e e 3 e e @ e e e 3 e + l l l l l l l l l l l l l ",
"l l l l l l 3 e e e e e e 3 3 3 I.3 3   A.3 e 3 e e @ 3 % e e e e 3 e e e e e 3 e e e e 3 e 3 2 e   l l l l l l l l l l l l l l ",
"l l l l l l e e e e e e e 3 e e * R.= I.e % e 2 e e + 3 X e e e e 3 3 * e e * @ * 2 e e 3 . e e + l l l l l l l l l l l l l l l ",
"l l l l l l e 2 e e 3 3 e e e e &   R.e e 3 * 3 3 2 &   e e % 2 e - e 3 e e O e . 3 e e s.x.s.3 e 2 l l l l l l l l l l l l l l ",
"l l l l l l 3 3 e e e 2 e e e e . R.@ I.3 e % e e a.b.l.e e 3 N s.y.f.  e e p.s.) 3 e 3 ) n 0.o e e e l l l l l l l l l l l l l ",
"l l l l l l 2 * 3 3 * e $ e 3 e D.  e   Y.e e e e - ' l.e * * g g j.f.* e 3 l x.u.3 3 e b l l s.i.e e e l l l l l l l l l l l l ",
"l l l l l l l l l l l e 3 * 3 e e 3 e e e + e e e ; l v e $ 3 g g g `   e 2 l l N 3 3 e l l l | l o e e 3 l l l l l l l l l l l ",
"l l l l l l l l l l l e * & * e e e e e 3 e e 3 3 , l l 3 e e l l l l X 3 e l g g 3 e e l l l l l l e 3 3 3 l l l l l l l l l l ",
"l l l l l l l l l l h % e 3 % + e 3 e 3 3 e e 3 3 , l l 3 e e l l l l X * $ g g g g g l l l l l l l f.3 e e @ 6 l l l l l l l l ",
"l l l l l l l l l l l l l l l l l l l 3 e e 3 3 3 g g g e e e l l l l @ * + g g g g g g l l l l l l l 4 e & e 3   h l l l l l l ",
"l l l l l l l l l l l l l l l l l l g . e 3 3 3 2 > g g e e e g g g g * e 3 g g g g g g g l l l l l l l l e 3 e   , l l l l l l ",
"l l l l l l l l l l l l l l l l l g g * e 3 * e 3 , g g 3 e * g g g g e 3 3 g g g g g g g g l l l l l l l l 3 * O l l l l l l l ",
"l l l l l l l l l l l l l l l l g g g g g g g g g g g g g g g g g g g g g g g g g g g g g g g l l l l l l l l   l l l l l l l l ",
"l l l l l l l l l l l l l l l g g g g g g g g g g g g g g g g g g g g g g g g g g g g g g g g g l l l l l l l l l l l l l l l l ",
"l l l l l l l l l l l l l l g g g g g g g g g g g g g g g g g g g g g g g g g g g g g g g g g g g l l l l l l l l l l l l l l l ",
"l l l l l l l l l l l l l g g g g g g g g g g g g g g g g g g g g g g g g g g g g g g g g g g g g g l l l l l l l l l l l l l l ",
"l l l l l l l l l l l l g g g g g g g g g g g g g g g g g g g g g g g g g g g g g g g g g g g g g g g l l l l l l l l l l l l l ",
"l l l l l l l l l l l g g g g g g g g g g g g g g g g g g g g g g g g g g g g g g g g g g g g g g g g g l l l l l l l l l l l l ",
"l l l l l l l l l l g g g g g g g g g g g g g g g g g g g g g g g g g g g g g g g g g g g g g g g g g g g l l l l l l l l l l l ",
"l l l l l l l l l g g g g g g g g g g g g g g g g g g g g g g g g g g g g g g g g g g g g g g g g g g g g g l l l l l l l l l l ",
"l l l l l l l l g g g g g g g g g g g g g g g g g g g g g g g g g g g g g g g g g g g g g g g g g g g g g g g l l l l l l l l l ",
"l l l l l l l g g g g g g g g g g g g g g g g g g g g g g g g g g g g g g g g g g g g g g g g g g g g g g g g g l l l l l l l l ",
"l l l l l l g g g g g g g g g g g g g g g g g g g g g g g g g g g g g g g g g g g g g g g g g g g g g g g g g g g l l l l l l l ",
"l l l l l g g g g g g g g g g g g g g g g g g g g g g g g g g g g g g g g g g g g g g g g g g g g g g g g g g g g g l l l l l l ",
"l l l l g g g g g g g g g g g g g g g g g g g g g g g g g g g g g g g g g g g g g g g g g g g g g g g g g g g g g g g l l l l l ",
"l l l g g g g g g g g g g g g g g g g g g g g g g g g g g g g g g g g g g g g g g g g g g g g g g g g g g g g g g g g g l l l l ",
"l l g g g g g g g g g g g g g g g g g g g g g g g g g g g g g g g g g g g g g g g g g g g g g g g g g g g g g g g g g g g l l l ",
"l g g g g g g g g g g g g g g g g g g g g g g g g g g g g g g g g g g g g g g g g g g g g g g g g g g g g g g g g g g g g g l l ",
"g g g g g g g g g g g g g g g g g g g g g g g g g g g g g g g g g g g g g g g g g g g g g g g g g g g g g g g g g g g g g g g l ",
"g g g g g g g g g g g g g g g g g g g g g g g g g g g g g g g g g g g g g g g g g g g g g g g g g g g g g g g g g g g g g g g g ",
"g g g g g g g g g g g g g g g g g g g g g g g g g g g g g g g g g g g g g g g g g g g g g g g g g g g g g g g g g g g g g g g g ",
"g g g g g g g g g g g g g g g g g g g g g g g g g g g g g g g g g g g g g g g g g g g g g g g g g g g g g g g g g g g g g g g g "
};
