/* XPM */
static char *b4d2c58eb37541028d894c3a72cfb6e3NockWdrDmChlpVIt[] = {
/* columns rows colors chars-per-pixel */
"64 64 174 2 ",
"   c #060201",
".  c #0B0101",
"X  c #0C0A03",
"o  c #120101",
"O  c #1C0101",
"+  c #150C05",
"@  c #1A0C05",
"#  c #0C1203",
"$  c #171006",
"%  c #1A1207",
"&  c #1C1509",
"*  c #1E190A",
"=  c #1E1211",
"-  c #250201",
";  c #2C0302",
":  c #2A0902",
">  c #340402",
",  c #3D0302",
"<  c #3C0E09",
"1  c #211505",
"2  c #2B1705",
"3  c #2E1A06",
"4  c #231509",
"5  c #221D0C",
"6  c #2D1D0A",
"7  c #391408",
"8  c #33190B",
"9  c #132207",
"0  c #172908",
"q  c #182B08",
"w  c #1C330A",
"e  c #24210D",
"r  c #2B2308",
"t  c #232D0E",
"y  c #282F09",
"u  c #322608",
"i  c #203009",
"p  c #2C300A",
"a  c #243D0C",
"s  c #3A300A",
"d  c #400202",
"f  c #4D0303",
"g  c #420A05",
"h  c #440D09",
"j  c #550303",
"k  c #560B05",
"l  c #461906",
"z  c #45130C",
"x  c #48170F",
"c  c #46180F",
"v  c #561707",
"b  c #461B11",
"n  c #4A1B12",
"m  c #482208",
"M  c #592509",
"N  c #572909",
"B  c #582B0A",
"V  c #583C0D",
"C  c #4C2116",
"Z  c #4F2618",
"A  c #462B1A",
"S  c #4D2C1C",
"D  c #502517",
"F  c #502618",
"G  c #512F1D",
"H  c #40381F",
"J  c #56301E",
"K  c #4F3421",
"L  c #4F3C25",
"P  c #553521",
"I  c #533A24",
"U  c #712C2D",
"Y  c #613220",
"T  c #7D3D3F",
"R  c #26430D",
"E  c #2F460F",
"W  c #274A0E",
"Q  c #2D4C0F",
"!  c #304F0F",
"~  c #2E520F",
"^  c #2F5310",
"/  c #315911",
"(  c #366113",
")  c #396614",
"_  c #3C6C15",
"`  c #5A4E11",
"'  c #455110",
"]  c #435D13",
"[  c #5B5312",
"{  c #406414",
"}  c #407517",
"|  c #427817",
" . c #447D18",
".. c #4B7D18",
"X. c #637117",
"o. c #414525",
"O. c #55452B",
"+. c #5B432A",
"@. c #57492D",
"#. c #5B4A2E",
"$. c #455323",
"%. c #5C5434",
"&. c #575D39",
"*. c #5D5E3B",
"=. c #645736",
"-. c #5A653E",
";. c #63663F",
":. c #656740",
">. c #646B43",
",. c #677348",
"<. c #717347",
"1. c #787F4F",
"2. c #85484B",
"3. c #8A4E51",
"4. c #8D5357",
"5. c #99676A",
"6. c #9E6C70",
"7. c #A6787B",
"8. c #A87B7F",
"9. c #47821A",
"0. c #4B841A",
"q. c #4E8A1B",
"w. c #51841A",
"e. c #528D1B",
"r. c #4F901C",
"t. c #55951D",
"y. c #569D1E",
"u. c #599D1F",
"i. c #64811A",
"p. c #64951E",
"a. c #68961E",
"s. c #64A11F",
"d. c #5CA420",
"f. c #5FA921",
"g. c #66A620",
"h. c #69A423",
"j. c #65AB21",
"k. c #62B323",
"l. c #69B423",
"z. c #65BA24",
"x. c #6ABB24",
"c. c #6ABD25",
"v. c #6AC025",
"b. c #6CC426",
"n. c #6DC727",
"m. c #6DC927",
"M. c #6CC628",
"N. c #6ECD28",
"B. c #678E58",
"V. c #738452",
"C. c #798451",
"Z. c #6A955C",
"A. c #9F7C80",
"S. c #AA7C80",
"D. c #A58489",
"F. c #AF848A",
"G. c #B28A8E",
"H. c #B48C91",
"J. c #B6949A",
"K. c #B79EA4",
"L. c #BBA2A7",
"P. c #C8A8AD",
"I. c #C6AEB5",
"U. c #CBAEB4",
"Y. c #CDB1B7",
"T. c #CFB4BA",
"R. c #ADC785",
"E. c #D4BCC3",
"W. c #DBC5CB",
"Q. c #DCCAD1",
"!. c #E0C9D1",
"~. c #E5D3DC",
"^. c #E8D6DE",
"/. c #EADBE2",
/* pixels */
"d d d d d d d d d d d d d d d d d d d d d d d d S S =.d d d d d d d d d d d L d d d d d d d d d d d d d d d d d d d d d d d d d ",
"d d d d d d d d d d d d d d d d d d d d d n C @.d =.d d d d S d z d d P d d F d d d d d d d d d d d d d d d d d d d d d d d d d ",
"d d d d d d d d d d d d d d d d d d d d d d d :.V.P d I z d d d n d d d g d z d d d d d d d d d d d d d d d d d d d d d d d d d ",
"j d d d d d d d d d d d d d d d d d d d z d d >.-.P d g d z d d d d d d z +.C d d d d d d d d d d d d d d d d d d d d d d d d j ",
"j j d d d d d d d d d d d d d d d d d g d z g n c h C d d n h g d d d I C h d d d d d d d d d d d d d d d d d d d d d d d d j j ",
"j j j d d d d d d d d d d d d d d d d d d g g g n J h c d d d d g z < 6 3 2 3 , , d d d d d d d d d d d d d d d d d d d d j j j ",
"j j j j d d d d d d d d d d d d d d z K d g d d n h +.d d c z d > 2 ] 0.q.q.q.] u ; d d d d d d d d d d d d d d d d d d j j j j ",
"j j j j j d d d d d d d d d d d d d d D d g d d z c c V.;.z G n @ d.c.v.j.x.b.z.u.r , d d d d d d d d d d d d d d d d j j j j j ",
"j j j j j j d d d d d d d d d d d d d h d d d d g d b G d #.d < { N.N.b.l.c.N.b.b.w.> d d d d d d d d d d d d d d d j j j j j j ",
"j j j j j j j d d d d d d d d d d d d I , > q w w q w > , c n 1 q.t.} u.b.l.d._ e.t.u d d d d d d d d d d d d d d j j j j j j j ",
"j j j j j j j j d d d d d d d d d d +.4 t q.l.l.b.x.x.0.E @ >.e d.9 # | b.v.9.  i u.u d d d d d d d d d d d d d j j j j j j j j ",
"v j j j j j j j j d d d d d d d h g , + b.m.N.x.h.m.m.M.m.a &.o.w.9._ d.l.x.f.( 0.e.7 d d d d d d d d d d d d j j j j j j j j j ",
"M N j j j j j j j j d d d d d d g d >  .N.N.N.l.g.m.N.b.m.k.8 ,.$.] c.c...e.x.m.] s , d d d d d d d d d d d j j j j j j j j j j ",
"v B j j j j j j j j j d d d d m l d # u.j.9.y.N.b.g.f. .u.x.R ,.%.H d.u.f.k.0.v.: , d d d d d d d d d d d j j j j j j j j j j j ",
"V V j j j j j j j j j j d d d d g d 0 m.#   a m.b.b.)   X b.W P *.A E R ~ / a ! > d d d d d d d d d d d j j j j j j j j j j j j ",
"[ V j j j j j j j j j j j d d d d d 9 k.a   9.b.x.j.r.  y b.R d C.B.*.g d d d d d d d d d d d d d d d j j j j j j j j j j j j j ",
"` B j j j j j j j j j j j j d d d d > e.N.b.b.s.g.m.x.b.b.z.; %.I Z.,.+.h S d d d d d d d d d d d d j j j j j j j j j j j j j j ",
"j j j j j j j j j j j j j j j d d d d ; r z.x.v.X g.c.m.p - d d P 1.C.#.g h Z d d d d d d d d d d j j j j j j j j j j j j j j j ",
"j j k k j j j j j j j j j j j j d d d d > d.0.k.v.v.) v.- d d n O.I -.:.d d g d d d d d d d d d j j j j j j j j j j j j j j j j ",
"j j j j j j j j j j j j j j j j j d d d , E R Q ^ / w Q > d c d d h S <.g g h h d d d d d d d j j j j j j j j j j j j j j j j j ",
"j j j j j j j j j j j j j j j j j j d d d d d d d d d d d d d Z d Z z #.z g S O.I Z d d d d j j j j j j j j j j j j j j j j j j ",
"j j j j j j j j j j j j j j j j j j j d d d d d d d d d d d d d d d d d h c d x z d n d d j j j j j j j j j j j j j j j j j j j ",
"j j j j j j j j j j j j j j j j j j j j d d d d d d d d j j j j j j j j d d d h n d g d j j j j j j j j j j j j j j j j j j j j ",
"j j j j j j j j j j j j j j j j j j j j j d d d d d j j j j j j j j j j j j d d d d L j j j j j j j j j j j j j W.j j j j j j j ",
"j j j j j j j j j j j j j j j j j j j j j j d d d j j j j j j j j j j j j d j d d d Y j j j j j j M k j j j j S.o O j j j j j j ",
"j j j j j j j j j j j j j j j j j j Q.o 5 5 5 5 5 j j ~.e + X , d d ^.@ e e j j d j j j j j j j j k j j j ^.3.  e e - j j j j j ",
"j j j j j j j j j j j j j j j j j j 8.% 5 * 5 e e j j J.5 5 e d d d ~.e e e j j j d j j j j j j j j j j ^.f 5 e e . f j j j j j ",
"j j j j j j j j j j j j j j j j j j U.% e e e e e j d Q.* e e d d d ~.e e e j j j d d j j j j j j j j S.> e e e 4 j j j j j j j ",
"j j j j j j j j j j J.E.!.W.W.P.F.7.5.+ e e 5 5 e j d L.5 e e j j j Q.e 5 e j j E.% e 5 j j j j j j U @ * e e * j j j j j j j j ",
"j j j j j j j j j j G.+ e @ e 5 5 * e & e e e 5 e d d E.e 5 e j j j Y.e 5 e d j /.e e e j j j j j H.. 5 e 5 - j j j j j j j j j ",
"j j j j j j j j j j 4.& 5 5 5 e o e e + 5 5 e 5 e d d I.5 e e j j j W.e e e d j !.5 e e j j j j 6.= 5 e 5 , j j j j j j j j j j ",
"j j j j j j j j j j T * e 5 + 5 * e 5 * . * e 5 e D.^.Q.4 e e E.W.^./.e 5 e A.R.U.5 e e W.2.F.~.O 5 5 * j j j j j j j j j j j j ",
"j j j j j j Q.Y.E.T.!.% e 5 5 5 e e e 5   . e 5 e   X & & e e   5 + * e e e % e e 5 e e @ e e e 5 e + j j j j j j j j j j j j j ",
"j j j j j j 5 e e e e e e 5 5 5 Q.5 5   K.5 e 5 e e @ 5 % e e e e 5 e e e e e 5 e e e e 5 e 5 5 e   j j j j j j j j j j j j j j ",
"j j j j j j e e e e e e e 5 e e * /.= Q.e % e 5 e e + 5 X e e e e 5 5 * e e * @ * 5 e e 5 . e e + j j j j j j j j j j j j j j j ",
"j j j j j j e 4 e e 5 5 e e e e &   /.e e 5 * 5 5 5 &   e e % 5 e - e 5 e e O e . 5 e e ' b.b.5 e 4 j j j j j j j j j j j j j j ",
"j j j j j j 5 5 e e e 5 e e e e . /.@ Q.5 e % e e l.m.p.e e 5 c.N.N.b.  e e X.N.N.5 e 5 a.h.b.o e e e j j j j j j j j j j j j j ",
"j j j j j j 5 * 5 5 * e $ e 5 e L.  e   ~.e e e 5 - a.N.e * * d g b.N.* e 5 j c.N.5 5 e j j j b.d.e e e j j j j j j j j j j j j ",
"j j j j j j j j j j j e 5 * 5 e e 5 e e e + e 5 5 > j b.e $ 5 d d d b.  e 5 j j d 5 5 e j j j j i.o e e 5 j j j j j j j j j j j ",
"j j j j j j j j j j j e * & * e e e e e 5 e e 5 5 d j j 5 e e j j j j X 5 e j d d 5 e e j j j j j N.e 5 5 5 j j j j j j j j j j ",
"j j j j j j j j j j f % e 5 % + e 5 e 5 5 e e 5 5 , j j 5 e e j j j j X * $ d d d d d j j j j j j j j 5 e e @ 8 j j j j j j j j ",
"j j j j j j j j j j j j j j j j j j j 5 e e 5 5 5 d d d e e e j j j j @ * + d d d d d d j j j j j j j 6 e & e 5   f j j j j j j ",
"j j j j j j j j j j j j j j j j j j d . e 5 5 5 5 > d d e e e d d d d * e 5 d d d d d d d j j j j j j j j e 5 e   , j j j j j j ",
"j j j j j j j j j j j j j j j j j d d * e 5 * e 5 , d d 5 e * d d d d e 5 5 d d d d d d d d j j j j j j j j 5 * O j j j j j j j ",
"j j j j j j j j j j j j j j j j d d d d d d d d d d d d d d d d d d d d d d d d d d d d d d d j j j j j j j j   j j j j j j j j ",
"j j j j j j j j j j j j j j j d d d d d d d d d d d d d d d d d d d d d d d d d d d d d d d d d j j j j j j j j j j j j j j j j ",
"j j j j j j j j j j j j j j d d d d d d d d d d d d d d d d d d d d d d d d d d d d d d d d d d d j j j j j j j j j j j j j j j ",
"j j j j j j j j j j j j j d d d d d d d d d d d d d d d d d d d d d d d d d d d d d d d d d d d d d j j j j j j j j j j j j j j ",
"j j j j j j j j j j j j d d d d d d d d d d d d d d d d d d d d d d d d d d d d d d d d d d d d d d d j j j j j j j j j j j j j ",
"j j j j j j j j j j j d d d d d d d d d d d d d d d d d d d d d d d d d d d d d d d d d d d d d d d d d j j j j j j j j j j j j ",
"j j j j j j j j j j d d d d d d d d d d d d d d d d d d d d d d d d d d d d d d d d d d d d d d d d d d d j j j j j j j j j j j ",
"j j j j j j j j j d d d d d d d d d d d d d d d d d d d d d d d d d d d d d d d d d d d d d d d d d d d d d j j j j j j j j j j ",
"j j j j j j j j d d d d d d d d d d d d d d d d d d d d d d d d d d d d d d d d d d d d d d d d d d d d d d d j j j j j j j j j ",
"j j j j j j j d d d d d d d d d d d d d d d d d d d d d d d d d d d d d d d d d d d d d d d d d d d d d d d d d j j j j j j j j ",
"j j j j j j d d d d d d d d d d d d d d d d d d d d d d d d d d d d d d d d d d d d d d d d d d d d d d d d d d d j j j j j j j ",
"j j j j j d d d d d d d d d d d d d d d d d d d d d d d d d d d d d d d d d d d d d d d d d d d d d d d d d d d d d j j j j j j ",
"j j j j d d d d d d d d d d d d d d d d d d d d d d d d d d d d d d d d d d d d d d d d d d d d d d d d d d d d d d d j j j j j ",
"j j j d d d d d d d d d d d d d d d d d d d d d d d d d d d d d d d d d d d d d d d d d d d d d d d d d d d d d d d d d j j j j ",
"j j d d d d d d d d d d d d d d d d d d d d d d d d d d d d d d d d d d d d d d d d d d d d d d d d d d d d d d d d d d d j j j ",
"j d d d d d d d d d d d d d d d d d d d d d d d d d d d d d d d d d d d d d d d d d d d d d d d d d d d d d d d d d d d d d j j ",
"d d d d d d d d d d d d d d d d d d d d d d d d d d d d d d d d d d d d d d d d d d d d d d d d d d d d d d d d d d d d d d d j ",
"d d d d d d d d d d d d d d d d d d d d d d d d d d d d d d d d d d d d d d d d d d d d d d d d d d d d d d d d d d d d d d d d ",
"d d d d d d d d d d d d d d d d d d d d d d d d d d d d d d d d d d d d d d d d d d d d d d d d d d d d d d d d d d d d d d d d ",
"d d d d d d d d d d d d d d d d d d d d d d d d d d d d d d d d d d d d d d d d d d d d d d d d d d d d d d d d d d d d d d d d "
};
