/* XPM */
static char *d18599925f2a4808b3089d1803300397OTIwpmi3hgOjZDIz[] = {
/* columns rows colors chars-per-pixel */
"64 64 256 2 ",
"   c #0B0D03",
".  c #0A0D0B",
"X  c #1C0402",
"o  c #140C03",
"O  c #1C0B04",
"+  c #140B0B",
"@  c #1B0B0B",
"#  c #18050A",
"$  c #0D1302",
"%  c #0D130C",
"&  c #041708",
"*  c #131104",
"=  c #1B1203",
"-  c #15150A",
";  c #0E0E13",
":  c #0B0D18",
">  c #140D14",
",  c #1A0C15",
"<  c #150D1A",
"1  c #1A0C1E",
"2  c #190714",
"3  c #0C1213",
"4  c #091516",
"5  c #141114",
"6  c #121119",
"7  c #1B1216",
"8  c #240503",
"9  c #2A0502",
"0  c #240B03",
"q  c #2B0B04",
"w  c #240B0C",
"e  c #29080A",
"r  c #330A03",
"t  c #3D0D03",
"y  c #360706",
"u  c #281208",
"i  c #331304",
"p  c #391408",
"a  c #210B1A",
"s  c #250914",
"d  c #291213",
"f  c #381515",
"g  c #3D2000",
"h  c #191420",
"j  c #052415",
"k  c #430C03",
"l  c #4C0A02",
"z  c #490907",
"x  c #590D07",
"c  c #4D1304",
"v  c #4C130C",
"b  c #461708",
"n  c #5C1303",
"m  c #53130B",
"M  c #591309",
"N  c #551706",
"B  c #481713",
"V  c #571816",
"C  c #4B0D1A",
"Z  c #630D02",
"A  c #67090A",
"S  c #760504",
"D  c #651205",
"F  c #6D1401",
"G  c #65120A",
"H  c #6C1809",
"J  c #781C08",
"K  c #651A17",
"L  c #7A1C13",
"P  c #650C12",
"I  c #432206",
"U  c #4F2417",
"Y  c #6A260A",
"T  c #7D220A",
"R  c #782506",
"E  c #6B2917",
"W  c #772615",
"Q  c #7D330D",
"!  c #752622",
"~  c #861D0A",
"^  c #941808",
"/  c #831F11",
"(  c #94160C",
")  c #B51E02",
"_  c #83240C",
"`  c #8A2905",
"'  c #9B2402",
"]  c #962707",
"[  c #8C2A12",
"{  c #872716",
"}  c #942C12",
"|  c #982817",
" . c #943215",
".. c #91320E",
"X. c #AE2B01",
"o. c #A82906",
"O. c #B32D03",
"+. c #BB2B00",
"@. c #B32C0C",
"#. c #BA2706",
"$. c #AA3608",
"%. c #BD3300",
"&. c #BC3B00",
"*. c #B63806",
"=. c #A92A15",
"-. c #B72A16",
";. c #B73516",
":. c #AF3217",
">. c #992A25",
",. c #842920",
"<. c #B63525",
"1. c #AE2F24",
"2. c #B71D21",
"3. c #D61D05",
"4. c #C81701",
"5. c #E31A08",
"6. c #C52502",
"7. c #CC2402",
"8. c #C42C03",
"9. c #CC2B03",
"0. c #CD240A",
"q. c #CD2C0A",
"w. c #C6280A",
"e. c #D32601",
"r. c #DC2404",
"t. c #D42B02",
"y. c #DC2A03",
"u. c #D32C0A",
"i. c #D8260B",
"p. c #C33301",
"a. c #CA3302",
"s. c #C43C02",
"d. c #CA3B01",
"f. c #C8380A",
"g. c #D23402",
"h. c #D43C02",
"j. c #DA3B03",
"k. c #D83408",
"l. c #C72916",
"z. c #D82914",
"x. c #C93717",
"c. c #D43419",
"v. c #E32504",
"b. c #E32709",
"n. c #E3340B",
"m. c #E82A13",
"M. c #C33725",
"N. c #D63724",
"B. c #C92C29",
"V. c #E52C21",
"C. c #AC4C00",
"Z. c #B54203",
"A. c #BB4302",
"S. c #BB4905",
"D. c #B65603",
"F. c #AC4910",
"G. c #B8690A",
"H. c #AB4327",
"J. c #9F5B00",
"K. c #CB4302",
"L. c #CB4A01",
"P. c #CC4C0C",
"I. c #C44706",
"U. c #D24302",
"Y. c #D34309",
"T. c #D7490A",
"R. c #C95505",
"E. c #D85607",
"W. c #C94813",
"Q. c #D54413",
"!. c #C95414",
"~. c #D85A15",
"^. c #E34808",
"/. c #E15207",
"(. c #E94B13",
"). c #C96403",
"_. c #DA6203",
"`. c #D66909",
"'. c #C97304",
"]. c #D77706",
"[. c #D96D15",
"{. c #D77714",
"}. c #CB7918",
"|. c #E3690C",
" X c #E4791B",
".X c #E97012",
"XX c #F2702A",
"oX c #DE7828",
"OX c #B68E00",
"+X c #D58509",
"@X c #CD8515",
"#X c #D78718",
"$X c #D89A17",
"%X c #CC9011",
"&X c #E78916",
"*X c #E69619",
"=X c #F6971B",
"-X c #EA9010",
";X c #D9A515",
":X c #D8B317",
">X c #E7A716",
",X c #EAB41A",
"<X c #EEA910",
"1X c #DF9124",
"2X c #E88D24",
"3X c #E79A24",
"4X c #F59535",
"5X c #E5A222",
"6X c #EAAA28",
"7X c #FEA728",
"8X c #ECB323",
"9X c #EABB28",
"0X c #FDB92B",
"qX c #E8A636",
"wX c #FCA839",
"eX c #FBB735",
"rX c #EFBB30",
"tX c #EEC91B",
"yX c #F4C919",
"uX c #FADA17",
"iX c #EECD0D",
"pX c #FCEA0E",
"aX c #FFE51D",
"sX c #FDEC1B",
"dX c #F8E617",
"fX c #FDF31D",
"gX c #FDF515",
"hX c #E9E70E",
"jX c #ECC52B",
"kX c #FBC828",
"lX c #FED32B",
"zX c #FDDC2C",
"xX c #F9D826",
"cX c #FDCB37",
"vX c #FFDC34",
"bX c #FAD836",
"nX c #EDCE2A",
"mX c #FDE423",
"MX c #FCED23",
"NX c #FFE32B",
"BX c #FDEB2C",
"VX c #F6EA22",
"CX c #FCF325",
"ZX c #FEE434",
"AX c #FEEB32",
"SX c #FEE53A",
"DX c #FDEA39",
"FX c #F7EF35",
"GX c #FF9A40",
"HX c #FEB946",
"JX c #FFAE4B",
"KX c #FED847",
"LX c #FDCD4E",
"PX c #FFE947",
"IX c #FFF541",
"UX c #FFEA52",
/* pixels */
"1 1 1 1 1 1 1 1 1 1 1 1 1 1 1 1 1 1 1 1 1 1 1 1 1 1 1 1 1 1 1 1 1 1 1 1 1 1 1 1 1 1 1 1 1 1 1 1 1 1 1 1 1 1 1 1 1 1 1 1 1 1 1 1 ",
"1 1 1 1 1 1 1 1 1 1 1 1 1 1 1 1 1 1 1 1 1 1 1 1 1 1 1 1 1 1 1 1 1 1 1 1 1 1 1 1 1 1 1 1 1 1 1 1 1 1 1 1 1 1 1 1 1 1 1 1 1 1 1 1 ",
"1 1 1 1 1 1 1 1 1 1 1 1 1 1 1 1 1 1 1 1 1 1 1 1 1 1 1 1 1 1 1 1 1 1 1 1 1 1 1 1 1 1 1 1 1 1 1 1 1 1 1 1 1 1 1 1 1 1 1 1 1 1 1 1 ",
"1 1 1 1 1 1 1 1 1 1 1 1 1 1 1 1 1 1 1 1 1 1 1 1 1 1 1 1 1 1 1 1 1 1 1 1 1 1 1 1 1 1 1 1 1 1 1 1 1 1 1 1 1 1 1 1 1 1 1 1 1 1 1 1 ",
"1 1 1 1 1 1 1 1 1 1 1 1 1 1 1 1 1 1 1 1 1 1 1 1 1 1 1 1 1 1 1 1 1 1 1 1 1 1 1 1 1 1 1 1 1 1 1 1 1 1 1 1 1 1 1 1 1 1 1 1 1 1 1 1 ",
"1 1 1 1 1 1 1 1 1 1 1 1 1 1 1 1 1 1 1 1 1 1 1 1 1 1 1 1 1 1 1 1 1 1 1 1 1 1 1 1 1 1 1 1 1 1 1 1 1 1 1 1 1 1 1 1 1 1 1 1 1 1 1 1 ",
"1 1 1 1 1 1 1 1 1 1 1 1 1 1 1 1 1 1 1 1 1 1 1 1 1 1 1 1 1 1 1 1 1 1 1 1 1 1 1 1 1 1 1 1 1 1 1 1 1 1 1 1 1 1 1 1 1 1 1 1 1 1 1 1 ",
"1 1 1 1 1 1 1 1 1 1 1 1 1 1 1 1 1 1 1 1 1 1 1 1 1 1 1 1 1 1 1 1 1 1 1 1 1 1 1 1 1 1 1 1 1 1 1 1 1 1 1 1 1 1 1 1 1 1 1 1 1 1 1 1 ",
"1 1 1 1 1 1 1 1 1 1 1 1 1 1 1 1 1 1 1 1 1 1 1 1 1 1 1 1 1 1 1 1 1 1 1 1 1 1 1 1 1 1 1 1 1 1 1 1 1 1 1 1 1 1 1 1 1 1 1 1 1 1 1 1 ",
"1 1 1 1 1 1 1 1 1 1 1 1 1 1 1 1 1 1 1 1 1 1 1 1 1 1 1 1 1 1 1 1 1 1 1 1 1 1 1 1 1 1 1 1 1 1 1 1 1 1 1 1 1 1 1 1 1 1 1 1 1 1 1 1 ",
"1 1 1 1 1 1 1 1 1 1 1 1 1 1 1 1 1 1 1 1 1 1 1 1 1 1 1 1 1 1 1 1 1 1 1 1 1 1 1 1 1 1 1 1 1 1 1 1 1 1 1 1 1 1 1 1 1 1 1 1 1 1 1 1 ",
"1 1 1 1 1 1 1 1 1 1 1 1 1 1 1 1 1 1 1 1 1 1 1 1 1 1 1 1 1 1 1 1 1 1 1 1 1 1 1 1 1 1 1 1 1 1 1 1 1 1 1 1 1 1 1 1 1 1 1 1 1 1 1 1 ",
"1 1 1 1 1 1 1 1 1 1 1 1 1 1 1 1 1 1 1 1 1 1 1 1 1 1 1 1 1 1 1 1 1 1 1 1 1 1 1 1 1 1 1 1 1 1 1 1 1 1 1 1 1 1 1 1 1 1 1 1 1 1 1 1 ",
"1 1 1 1 1 1 1 1 1 1 1 1 1 1 1 1 1 1 1 1 1 1 1 1 1 1 1 1 1 1 1 1 1 1 1 1 < < < 1 < < < 4 < 1 1 1 1 1 1 1 1 1 1 1 1 1 1 1 1 1 1 1 ",
"1 1 1 1 5 % > > < < 1 < < < 1 1 1 1 < 1 < 1 1 1 1 1 1 1 1 < < , 1 < + % % % & 4 ; 4 4 4 4 : > 2 1 > < 1 1 : > 1 1 1 1 1 1 1 1 1 ",
": s 0 0 * O 8 O O 8 w @ = * > > & & - @ O 0 O + o # e @ % 5 5 > < d 8 8 8   & . @ 8 o o + > < 1 # 8 @ 2 , + $ 2 2 2 a 1 s < 6 1 ",
". t Y Y T ~ ~ L ~ ~ R I $ % , # $ - R _ _ ~ T Y R T T f % > 2 > e ! _ ~ / ! V t E / J R W C = & p W T L T Y R R _ R T J L q $ % ",
"X Z F.I.h.h.K.A.K.T.K.R r O 1 w r D Y.U.h.j.K.I.I.L.I.H w , , 2 y <.h.U.h.x.| S M.T.L.U.N.| r & I f.Y.K.I.S.I.K.I.A.D.I.x.D 9 * ",
"P x.S.3XLXLXbXbXbXKX@XS.:.G 9 w  .k./.wXbXlXcXkXxX9XE.;.| y @ O o F.&XZXSX).&.f.*.6XAXZXk.z...o I S.6XMXVXxXlXlXzXbXKXGXj.x.W o ",
"n I.-XjX9X+X].}.;XbXrX.X9.] c w | (.=XbX:X]..X].<XuX<XE.#.L p f * $.&XsXsX,X].A.-XnXCXNXj.t.o.  b Z.,XfXdX+X.X{.+X%X{.|.n.z./ o ",
"I G.kXNX5X%.r.0.I.>X>X[.y.c.F = _ ~.CXVX@X7.5.6.].pXaX].9.B.P P @ O.&XsXhXCXjX+XDXVXVXAXd.t.$.  p I.6XmXnXI.y.8.p.+.t.v.5.V.L % ",
"g D.kXaX5Xs.v.e.O.C.C.s.r.c.F 9 ` `.CXsX@X7.5.e.].fXaX{.6.l.Z D 9 O.-XMXgXdXaXyXaXdXdXDXd.q.@.# B x.6XMXnXA.7.8.%.%.v.v.m.N.E $ ",
"t ).lXBX5Xs.r.XXLXJXeXXXi.B.S q ` _.mXaX#X@.q.o.'.BXzX{.t.@.F F 9 O.-XVXCXOX%XlXC.iXCXDXd.z.2.8 x f.9XhXuX0XJXeXHXHX(.e.q.F q o ",
"V I.kXNX5X&.6.XXqXmXsX*Xe.c.Z O ` _.AXdX>XG.}.}.>XaXzX[.u.$.N n 9 X.&XmXDXS.S.XX+.$XCXAXd.0.=.o c s.,XsXzX6XqXqXqXGX(.t.;.0   > ",
"V !.cXNX5X&.a.9.R.dXgX-X7.c.D = R _.NXaXuXcXLXLXkXsXmX[.u.@.n D 9 X.#XsXDXL.6.v.) <XdXMXd.q. .o N f.<XfXtXD.A.&.*.&.r.b.M.= & @ ",
"U D.cXNX*X*.8.4.R.NXCX-X7.c.F O R _.BXMX*X!.!.!.-XpXdX`.u.-.D D r X.-XfXBXE.r.r.6.>XdXBXh.w. .X m Z.8XpXtXZ.6.8.6.6.3.3.l.i $ o ",
"b !.-XkX9XG.`._.].<XxX3X7.x.F q ` |.fXVX@XO.8.+.].CXCX`.u.-.Z A 9 o.-XVXSXE.e.3.6.>XfXaXh.e.=.9 m S.9XfXuX]._._.'.'._.E.a.F i % ",
"I ;.%.&XKXUXKXUXeXS.qX4Xl.x.F 9 ' E.PXPX Xj.u.6.`.SXvX{.u.-.H H 8 $.2XUXKXE.9.m.7.=XDXAXj.k.=.X c &.qXFXDXvXbXKXKXSXDX0XT.x.W > ",
"f Z $.L.E.P.P.E.Y.8.h.T.i.c.S r | N.E./.k.u.u.u.j.E.P.Y.q.:.n x e H.P.~.E.h.a.a.p.T./.^.a.g.=.8 m x.Q.R.R.R.E.n.(.T.R.P.p.n.^ @ ",
"e k T :.w.w.w.0.q.g.9.y.i.N.S q K | 9.t.t.c.l.) #.a.6.k.a.:.M M w ! o.9.0.y.d.;.^ w.e.i.u.q.=.9 p [ @.q.#.#.6.0.i.0.9.9.9.m.( O ",
"+ @ e K <.-.-.-.-.@.*.@.-.<.x = + B :.#.@.<.>.x D ;.-.#.$.| v v > X W -.w.w.;.[ y ( 2.-.2.<.} X $ u W ;.l.l.l.1.:.-.l.#.-.M.L @ ",
"+ > > w m m v z n Z c c m v 9 $ & 7 M x l C f 0 0 b x c b b 8 w +   q m x M M p   p v v v v p @ % + i v M A x z v v x v v K y % ",
"< + i i c k k k z z l d 6 4 & @ u t l l t d > u u z z z u % - - o p t t k l z t i t t t t i $ 4 a C z k l l l t k l k f . 4 % $ ",
"; p Q } ' ' ] ` ] ] =.K 0 - 3 y { =.^ ]  .E y E [ | ( =.W = & $ = ,...` ' ' ] [ [ ] ] ] } Y O % C >.[ ] ' ' ' ] ' ' | W 0 4 % * ",
"f ] @._.3X3X*X3X*X*X!.=.L w 6 e ..P.5X3X`.F.^ #.~.*X-X~.@.J t t 0 H.[.$X$X5X5X1X3X*X3X3XY.@.H X v W.oX3X2X>X;X1X*X3XT.o.{ X 3 3 ",
"V x.d.&XKXcXvXcXlXzX#X&.=.m a w ] ).NXNX{.f.7.7..XNXNX[.7.o.G G q $.*XFXFXxXxXlXlXzXbXKXK.f.=.8 m f.6XzXNXbXbXKXvXNX`.s.;.l , : ",
"B !.kXBX$XZ.%.8.D.pXdX*Xf.M.P e ..`.BXAX#X8.7.8.].aXmX[.c.1.G G 9 O.&XBXmXG.%.p.s.%.p.a.t.6.] X v *.8XpXtXD.9.#.J.,XPXwXn.x.Y % ",
"U D.lXMX5X&.i.b.L.dXgX-X6.N.S y ` _.BXmX@Xp.y.w.].sXsX`.c.=.M M 9 8.&XmXZXL.6.e.9.8.t.v.y.x.1.# v *.,XfXnX&.r.3.D.9XZXeXj.u._ @ ",
"U I.kXmX6X*.e.b.E.dXfX=Xe.N.A y _ _.BXxX@X8.v.3.`.fXdX].w.:.n n 9 X. XzXNX`.I.h.T.!.h.b.r.l.{ + m f.8XMXnXR.Q.k.).rXnX=Xh.q.L # ",
"N U.kXxX5Xs.y.r.).sXgX*X9.c.P 9 ` _.ZXFX@X6.t.O.+XDXvX[.q.@.n n 0 X.&XBXBXkXeXeXeXLXXXn.t.] i & c s.8XdXaXkXLXHXcXvX%XC.8.k./ @ ",
"N R.kXaX>Xs.r.e.).VXCX*X+.x.A y ..R.*XlX8X Xp.].>XbX*XP.a.@.M D 0 O.-XBXaX;X%X#X#X&X.Xi.q._   & b &.8XpXuX$X1X@X;XnX>X].d.q.T o ",
"N D.kXuX>Xs.r.z.D.ZXIX*X8.x.F q E $.I.7XUXLXJ.nXIX3XI.8.8.-.Z Z 8 $.&XBXFXD.o.+.#.) 9.k.z.,.. j b S.6XdXiX*.8.6.D.9XSXeXg.k._ * ",
"N P.kXZX6XC.s.K.G.bXSX2X9.x.H X r D f.K.2XPXvXxX<Xp.r.z.l.1.v m 9 X.#XBXBXG.*.d.k.a.s.s.q.( 0 & b Z.rXmXyXL.b.3.L.9XzXrXa.k.R $ ",
"N !.&X0XjX%X#X#X$XvX,X|.r.c.G 2 # t ~ @.[.5XvX3X|.0.r.m.l.K i i y $.&XNXMX;X@X X X X1X#Xd.o.V   b S.6XBXyXL.b.0.D.jXPXeXa.h.R $ ",
"U ] *..XJXwXwX4XGX7X|.t.b.N.M ; : @ k W } I.=XU.r.b.z.=.W 9 u u 9 ;..X7X0X7XwX4XGXwXwXGXY.x.=.X m N.4XwX=Xh.v.a.L.=X0X4Xk.n.T $ ",
"O H $.I.W.W.T.Q.^.T.n.r.b.M.N % 4 % O i W I.^.v.v.z.x.H i o o * q H.Y.T.K.E.W.Y.x.W.Q.T.d.k.-.9 V B.Q.P.T.v.v.s.I.U.P.T.b.m./ o ",
"& X N ..c.k.d.t.t.7.y.c.c.~ i $ % % 7 7 f Y f.b.z.1.Y = & % 7 h + N ] U.j.t.a.t.t.a.g.g.t.u.O.8 u Y =.t.b.m.m.' ^ #.s.w.V.N.{ # ",
"4 % 0 v >.{ [ [ }  . .{ T t = $ * @ # . . p { | [ E = & & % < < : w B [ _ ] } | | [ ] ] } } R =   0 V  .{ >.>.V l H Q W >.{ v + ",
". 4 o 0 r q e 0 0 u q r r 0 - $ = @ @ 7 6 + e r q w > > 6 < 1 < 1 1 1 a a s e e q e e y 0 9 r + . % - = O s a a @ @ u u s a 7 1 ",
"4 : < 1 , 1 1 1 < 1 < 1 1 < 5 5 6 1 < , > < > 1 1 1 < 1 1 1 1 1 1 1 1 1 1 1 1 < 3 5 > > 6 < > 1 1 1 < < , 1 1 < < < 1 1 6 1 1 1 ",
"1 1 1 1 1 1 1 1 1 1 1 1 1 1 1 1 1 1 1 1 1 1 1 1 1 1 1 1 1 1 1 1 1 1 1 1 1 1 1 1 1 1 1 1 1 1 1 1 1 1 1 1 1 1 1 1 1 1 1 1 1 1 1 1 ",
"1 1 1 1 1 1 1 1 1 1 1 1 1 1 1 1 1 1 1 1 1 1 1 1 1 1 1 1 1 1 1 1 1 1 1 1 1 1 1 1 1 1 1 1 1 1 1 1 1 1 1 1 1 1 1 1 1 1 1 1 1 1 1 1 ",
"1 1 1 1 1 1 1 1 1 1 1 1 1 1 1 1 1 1 1 1 1 1 1 1 1 1 1 1 1 1 1 1 1 1 1 1 1 1 1 1 1 1 1 1 1 1 1 1 1 1 1 1 1 1 1 1 1 1 1 1 1 1 1 1 ",
"1 1 1 1 1 1 1 1 1 1 1 1 1 1 1 1 1 1 1 1 1 1 1 1 1 1 1 1 1 1 1 1 1 1 1 1 1 1 1 1 1 1 1 1 1 1 1 1 1 1 1 1 1 1 1 1 1 1 1 1 1 1 1 1 ",
"1 1 1 1 1 1 1 1 1 1 1 1 1 1 1 1 1 1 1 1 1 1 1 1 1 1 1 1 1 1 1 1 1 1 1 1 1 1 1 1 1 1 1 1 1 1 1 1 1 1 1 1 1 1 1 1 1 1 1 1 1 1 1 1 ",
"1 1 1 1 1 1 1 1 1 1 1 1 1 1 1 1 1 1 1 1 1 1 1 1 1 1 1 1 1 1 1 1 1 1 1 1 1 1 1 1 1 1 1 1 1 1 1 1 1 1 1 1 1 1 1 1 1 1 1 1 1 1 1 1 ",
"1 1 1 1 1 1 1 1 1 1 1 1 1 1 1 1 1 1 1 1 1 1 1 1 1 1 1 1 1 1 1 1 1 1 1 1 1 1 1 1 1 1 1 1 1 1 1 1 1 1 1 1 1 1 1 1 1 1 1 1 1 1 1 1 ",
"1 1 1 1 1 1 1 1 1 1 1 1 1 1 1 1 1 1 1 1 1 1 1 1 1 1 1 1 1 1 1 1 1 1 1 1 1 1 1 1 1 1 1 1 1 1 1 1 1 1 1 1 1 1 1 1 1 1 1 1 1 1 1 1 ",
"1 1 1 1 1 1 1 1 1 1 1 1 1 1 1 1 1 1 1 1 1 1 1 1 1 1 1 1 1 1 1 1 1 1 1 1 1 1 1 1 1 1 1 1 1 1 1 1 1 1 1 1 1 1 1 1 1 1 1 1 1 1 1 1 ",
"1 1 1 1 1 1 1 1 1 1 1 1 1 1 1 1 1 1 1 1 1 1 1 1 1 1 1 1 1 1 1 1 1 1 1 1 1 1 1 1 1 1 1 1 1 1 1 1 1 1 1 1 1 1 1 1 1 1 1 1 1 1 1 1 ",
"1 1 1 1 1 1 1 1 1 1 1 1 1 1 1 1 1 1 1 1 1 1 1 1 1 1 1 1 1 1 1 1 1 1 1 1 1 1 1 1 1 1 1 1 1 1 1 1 1 1 1 1 1 1 1 1 1 1 1 1 1 1 1 1 ",
"1 1 1 1 1 1 1 1 1 1 1 1 1 1 1 1 1 1 1 1 1 1 1 1 1 1 1 1 1 1 1 1 1 1 1 1 1 1 1 1 1 1 1 1 1 1 1 1 1 1 1 1 1 1 1 1 1 1 1 1 1 1 1 1 ",
"1 1 1 1 1 1 1 1 1 1 1 1 1 1 1 1 1 1 1 1 1 1 1 1 1 1 1 1 1 1 1 1 1 1 1 1 1 1 1 1 1 1 1 1 1 1 1 1 1 1 1 1 1 1 1 1 1 1 1 1 1 1 1 1 ",
"1 1 1 1 1 1 1 1 1 1 1 1 1 1 1 1 1 1 1 1 1 1 1 1 1 1 1 1 1 1 1 1 1 1 1 1 1 1 1 1 1 1 1 1 1 1 1 1 1 1 1 1 1 1 1 1 1 1 1 1 1 1 1 1 "
};
