/* XPM */
static char *_5a78b49093546d5ee539f3a43ce87e7lJgjhrmyof6znxGA[] = {
/* columns rows colors chars-per-pixel */
"64 64 35 1 ",
"  c #111315",
". c #131516",
"X c #191616",
"o c #151718",
"O c #381A1A",
"+ c #292A29",
"@ c #3B3B39",
"# c #3F3F3D",
"$ c #400202",
"% c #550303",
"& c #471D1C",
"* c #481D1C",
"= c #712321",
"- c #742422",
"; c #7D2523",
": c #686561",
"> c #812623",
", c #942826",
"< c #AF2D29",
"1 c #B22D29",
"2 c #CF322D",
"3 c #D3322E",
"4 c #DC342F",
"5 c #E47163",
"6 c #E6796B",
"7 c #9E9891",
"8 c #A39D96",
"9 c #A59F97",
"0 c #B4AEA5",
"q c #BFB8AE",
"w c #C0B9AF",
"e c #E2D9CD",
"r c #E9E0D4",
"t c #F4EADD",
"y c #F7EDE0",
/* pixels */
"$$$$$$$$$$$$$$$$$$$$$$$$$$$$$ .... $$$$$$$$$$$$$$$$$$$$$$$$$$$$$",
"$$$$$$......$$$$$$$$$$$$$..............$$$$$$$$$$$$$......$$$$$$",
"$$$$.........$$$$$$$$$....................$$$$$$$$$.........$$$$",
"%$$............$$$$$........................$$$$$............$$%",
"%%.............$$$............................$$$.............%%",
"%%.............$$$............................$$$.............%%",
"%...............$..............................$...............%",
"%..........................yyyyyyyyyy..........................%",
"%.......................yyyyyyyyyyyyyyyy.......................%",
".............4........yyyyyyyyyyyyyyyyyyyy........4.............",
"............42.....+yyyyyyyyyyyyyyyyyyyyyyyy+.....24............",
"%..........,4..........yyyyyyyyyyyyyyyyyy..........4,..........%",
"%..........4;....ryyyyeyyyyyyyyyyyyyyyyyyeyyyyr....;4..........%",
"%..........4....yyyyyyyyyyyyyyyyyyyyyyyyyyyyyyyy....4..........%",
"%%........34...oyyyyyyyyyyyyyyyyyyyyyyyyyyyyyyyyo...43........%%",
"%%........4*...yyyyyyyyyyyyyyyyyyyyyyyyyyyyyyyyyy...*4........%%",
"%%........4*...yyyyyyyyyyyyyyyyyyyyyyyyyyyyyyyyyy...*4........%%",
"%%%.......4....yyyyyyyyyyyyyyyyyyyyyyyyyyyyyyyyyy....4.......%%%",
"%%%%..........yyyyyyyyyyyyyyyyyyyyyyyyyyyyyyyyyyyy..........%%%%",
"%%%%%%........yyyyyyyyyyyyyyyyyyyyyyyyyyyyyyyyyyyy........%%%%%%",
"%%%%%%%%%%....yyyyyyyyyyyyyyyyyyyyyyyyyyyyyyyyyyyy....%%%%%%%%%%",
"%%%%%%%%%%%...yyyyyyyyyyyyyyyyyyyyyyyyyyyyyyyyyyyy...%%%%%%%%%%%",
"%%%%%%%%%%%...y8...yyyyyyyyyyyyyyyyyyyyyyyyyy...8y...%%%%%%%%%%%",
"%%%%%%%%%%%...yyyy.....yyyyyyyyyyyyyyyyyy.....yyyy...%%%%%%%%%%%",
"%%%%%%%%%%%...yyyyyyyy....yyyyyyyyyyyy....yyyyyyyy...%%%%%%%%%%%",
"%%%%%%%%%%%%..yyyyyyyyyyy0yyyyyyyyyyyy0yyyyyyyyyyy..%%%%%%%%%%%%",
"%%%%%%%%%%%%..@yyyyyyyyyyyyyyyyyyyyyyyyyyyyyyyyyy@..%%%%%%%%%%%%",
"%%%%%%%%%%%%..@yyyyyyyyyyyyyyyyyyyyyyyyyyyyyyyyyy@..%%%%%%%%%%%%",
"%%%%%%%%%%%%...yyyyyyyyyyyyyyyyyyyyyyyyyyyyyyyyyy...%%%%%%%%%%%%",
"%%%%%%%%%%%%%..yyyy6555yyyyyyywyyqyyyyyyy5556yyyy..%%%%%%%%%%%%%",
"%%%%%%%%%%%%%%..yyy5555yyyyyy0.yy.0yyyyyy5555yyy..%%%%%%%%%%%%%%",
"%%%%%%%%%%%%%%%..yy5555yyyyyyy....yyyyyyy5555yy..%%%%%%%%%%%%%%%",
"%%%%%%%%%%%%%%%..yyy555yyyyyyy:..:yyyyyyy555yyy..%%%%%%%%%%%%%%%",
"%%%%%%%%%%%%%%%%..#yyyyyyyyyyyyyyyyyyyyyyyyyy#..%%%%%%%%%%%%%%%%",
"%%%%%%%%%%%%%%%%%%..9yyyyyyyyyyyyyyyyyyyyyy9..%%%%%%%%%%%%%%%%%%",
"%%%%%%%%%%%%%%%%%%%.....tyyyyyyyyyyyyyyt.....%%%%%%%%%%%%%%%%%%%",
"%%%%%%%%%%%%%%%%%%%%%......................%%%%%%%%%%%%%%%%%%%%%",
"%%%%%%%%%%%%%%%%%%%%%......................%%%%%%%%%%%%%%%%%%%%%",
"%%%%%%%%%%%%%%%%%%%%..4.444&........&444.4..%%%%%%%%%%%%%%%%%%%%",
"%%%%%%%%%%%%%%%%%%..444.4444444444444444.444..%%%%%%%%%%%%%%%%%%",
"%%%%%%%%%%%%%%%%%..4444.4444444444444444.4444..%%%%%%%%%%%%%%%%%",
"%%%%%%%%%%%%%%%%..4444.X4444444444444444X.4444..%%%%%%%%%%%%%%%%",
"%%%%%%%%%%%%%%%..44444.444444444444444444.44444..%%%%%%%%%%%%%%%",
"%%%%%%%%%%%%%%%.X44444.444444444444444444.44444X.%%%%%%%%%%%%%%%",
"%%%%%%%%%%%%%%%..O4441.444444444444444444.1444O..%%%%%%%%%%%%%%%",
"%%%%%%%%%%%%%%..y.=44.-444444444444444444-.44=.y..%%%%%%%%%%%%%%",
"%%%%%%%%%%%%%%..yy.<>.44444444444444444444.><.yy..%%%%%%%%%%%%%%",
"%%%%%%%%%%%%%$$.yy7...44444444444444444444...7yy.$%%%%%%%%%%%%%%",
"%%%%%%%%%%%%$$$.yy7...44444444444444444444...7yy.$$%%%%%%%%%%%%%",
"%%%%%%%%%%%$$$$.......44444444444444444444.......$$$%%%%%%%%%%%%",
"%%%%%%%%%%$$$$$$$$$$....4444444444444444....$$$$$$$$$%%%%%%%%%%%",
"%%%%%%%%%$$$$$$$$$$$$$$..................$$$$$$$$$$$$$%%%%%%%%%%",
"%%%%%%%%$$$$$$$$$$$$$$$$................$$$$$$$$$$$$$$$%%%%%%%%%",
"%%%%%%%$$$$$$$$$$$$$$$$$.......$$.......$$$$$$$$$$$$$$$$%%%%%%%%",
"%%%%%%$$$$$$$$$$$$$$$$$$.......$$.......$$$$$$$$$$$$$$$$$%%%%%%%",
"%%%%%$$$$$$$$$$$$$$$$$$$.......$$.......$$$$$$$$$$$$$$$$$$%%%%%%",
"%%%%$$$$$$$$$$$$$$$$$$$$.......$$.......$$$$$$$$$$$$$$$$$$$%%%%%",
"%%%$$$$$$$$$$$$$$$$$$$$$.......$$.......$$$$$$$$$$$$$$$$$$$$%%%%",
"%%$$$$$$$$$$$$$$$$$$$$$$.......$$.......$$$$$$$$$$$$$$$$$$$$$%%%",
"%$$$$$$$$$$$$$$$$$$$$$$$.......$$.......$$$$$$$$$$$$$$$$$$$$$$%%",
"$$$$$$$$$$$$$$$$$$$$$$$$.......$$.......$$$$$$$$$$$$$$$$$$$$$$$%",
"$$$$$$$$$$$$$$$$$$$$$$$$$.....$$$$.....$$$$$$$$$$$$$$$$$$$$$$$$$",
"$$$$$$$$$$$$$$$$$$$$$$$$$$...$$$$$$...$$$$$$$$$$$$$$$$$$$$$$$$$$",
"$$$$$$$$$$$$$$$$$$$$$$$$$$$$$$$$$$$$$$$$$$$$$$$$$$$$$$$$$$$$$$$$"
};
