/* XPM */
static char *_0bda3be72484dedccdcd77b2c3a5444iQCdxGGXxm14FR9k[] = {
/* columns rows colors chars-per-pixel */
"64 64 193 2 ",
"   c #4B0F08",
".  c #4D1009",
"X  c #53120A",
"o  c #5B140B",
"O  c #511610",
"+  c #531A13",
"@  c #581F18",
"#  c #64160D",
"$  c #6A170E",
"%  c #6D190E",
"&  c #721A0F",
"*  c #771B10",
"=  c #7A1C11",
"-  c #5B231D",
";  c #6D251E",
":  c #7D2312",
">  c #7B2218",
",  c #5F2821",
"<  c #632D27",
"1  c #66322B",
"2  c #69352E",
"3  c #6B3731",
"4  c #7D4D47",
"5  c #831D12",
"6  c #8B1F14",
"7  c #951D15",
"8  c #9D1C17",
"9  c #A21E17",
"0  c #B71E1B",
"q  c #822714",
"w  c #8B2116",
"e  c #842C13",
"r  c #942116",
"t  c #9C2217",
"y  c #9F2218",
"u  c #8C3619",
"i  c #A02317",
"p  c #A12318",
"a  c #A42A1A",
"s  c #B3271C",
"d  c #A23518",
"f  c #853225",
"g  c #A72A22",
"h  c #BA2C26",
"j  c #BE3229",
"k  c #C1211D",
"l  c #DF1B22",
"z  c #DC2F22",
"x  c #D82F2C",
"c  c #C1322B",
"v  c #DE3A36",
"b  c #E62324",
"n  c #E42B24",
"m  c #ED2D25",
"M  c #EC2D2B",
"N  c #EE3425",
"B  c #EF3C25",
"V  c #ED302C",
"C  c #F03226",
"Z  c #F13D27",
"A  c #F03529",
"S  c #EC3433",
"D  c #EE3D39",
"F  c #F03730",
"G  c #F03832",
"H  c #F13D3B",
"J  c #9A4B16",
"K  c #984718",
"L  c #A34D19",
"P  c #B4481B",
"I  c #A25217",
"U  c #A55E16",
"Y  c #BB551C",
"T  c #B26A1A",
"R  c #B7681B",
"E  c #B37219",
"W  c #8E412D",
"Q  c #994D26",
"!  c #9B5125",
"~  c #9C5228",
"^  c #A84934",
"/  c #A05A31",
"(  c #B56C29",
")  c #BD7B3B",
"_  c #D24426",
"`  c #E54524",
"'  c #E65724",
"]  c #E9433D",
"[  c #F1443B",
"{  c #F25637",
"}  c #EF6A24",
"|  c #E76828",
" . c #EA7426",
".. c #E87A2A",
"X. c #F07F25",
"o. c #F26D3B",
"O. c #F47939",
"+. c #80514C",
"@. c #875C57",
"#. c #945952",
"$. c #A4554D",
"%. c #8D635E",
"&. c #98625C",
"*. c #A5665F",
"=. c #8F6661",
"-. c #926863",
";. c #9A6C66",
":. c #9B736D",
">. c #9F7A75",
",. c #A47C77",
"<. c #EE6C49",
"1. c #F77B45",
"2. c #F77E4A",
"3. c #BD822B",
"4. c #CB851E",
"5. c #DC941F",
"6. c #D8A31F",
"7. c #DE8A20",
"8. c #DC9721",
"9. c #C58A3A",
"0. c #D98C35",
"q. c #E98525",
"w. c #ED8D25",
"e. c #F18929",
"r. c #F1982A",
"t. c #E68635",
"y. c #F3893A",
"u. c #E39936",
"i. c #DFA420",
"p. c #DFAB37",
"a. c #EDA425",
"s. c #E3A923",
"d. c #EDAA24",
"f. c #F4A728",
"g. c #EDB524",
"h. c #EFB824",
"j. c #F1B423",
"k. c #F0B924",
"l. c #F7A83E",
"z. c #E5B133",
"x. c #F8BA3C",
"c. c #EEC421",
"v. c #F1CE25",
"b. c #FCC23F",
"n. c #B88861",
"m. c #A7847F",
"M. c #C3904B",
"N. c #C39357",
"B. c #F48843",
"V. c #ED9845",
"C. c #F79051",
"Z. c #FAAE4E",
"A. c #F1BF46",
"S. c #FCB258",
"D. c #C38A65",
"F. c #C3966C",
"G. c #F19D70",
"H. c #E8BC65",
"J. c #F9C748",
"K. c #F7D545",
"L. c #F8CC58",
"P. c #F5D250",
"I. c #FACB62",
"U. c #F2D563",
"Y. c #FCD872",
"T. c #F9E26D",
"R. c #FCEA77",
"E. c #A78480",
"W. c #A88581",
"Q. c #AB8A85",
"!. c #AE8E8A",
"~. c #B1918D",
"^. c #B69893",
"/. c #BA9E9B",
"(. c #BDA29E",
"). c #BEA4A0",
"_. c #C4ABA7",
"`. c #CBB5B2",
"'. c #CFBBB8",
"]. c #D2BEBB",
"[. c #EFDA8B",
"{. c #F7DA89",
"}. c #EBD89C",
"|. c #FBEA85",
" X c #FFF28A",
".X c #FDEE97",
"XX c #D4C1BF",
"oX c #F4E8A8",
"OX c #FEF1A3",
"+X c #FDF4B2",
"@X c #D9C7C4",
"#X c #DAC9C7",
"$X c #DCCBC9",
/* pixels */
"* * * * * * * y p p = * * * * * * * * * * * * * * * * = y p p p 6 * * * * * * * * * * * * * * * * = t r z * * * * * * * * * * r ",
"* * * * * * t p r p p y * * * * * * * * * * * * * = i p p p = s r r * * * * * * * * * * * * * * = y y = z * * * * * * * * * = y ",
"* * * * * t y p = 6 p p p t * * * * * * * * * = p p p y = * : s = r r * * * * * * * * * * * * = p p * = z * * * * * * * * * g.k.",
"* * * * y y = p = * t p p p p r = * * * = t p p p y = * * q Y.P.L : r r * * * * * * * * * * = p p * * = z * * * * * * * * : k.k.",
"* * * y i 5 * i = * * t p t p p p i p p p p p r * * * * K.y.G X.q.X.I t 6 * * * * * * * * * p p * * W / <.Q : * * * * * * 5 Y 8.",
"* * t y 6 * oX XR.R * * y p 6 5 p p p p y 5 * * * * * 9.G y.C X.n  .w.6 t y * * * * * * * p p = * * N.R.|.z.e * * * * * * i p p ",
"* y y = * 0.K.B.` 7.6.* * i p 5 * * * * * * * * * * * 9.G C.C X.b  .w.* r p t * * * * * p p = = = J.y.{ g.q.` 6.= * * * = p p * ",
"t t * ( b.o.[ } Z ' b j.J * p p * * * * * * * * * * * E G y.C X.b  .w.* * i p * * * * y p 5 q 0.x.{ O.N j.b g.` f.J * * y p y * ",
"6 * * S.m r.A } B N d.l k.* * p p * * * * * * * * * * 3.G X.C X.b  .w.* * = p y * * 6 p r * ! 2.m w.{ N j.m |  .l h.* * p p = * ",
"* * * S.m S.A } B m c.l k.* * 6 p t * * * * * * * * * 3.G y.C X.w.b w.* * * y p r * p p * * ~ 2.m L.F N j.C n a.l g.* p p 5 * * ",
"* * * Z.m S.C } B m c.l k.* * * y p = * * * * * * * * * : ..B.t.| T = * * * * p Y k.P * * * ~ 2.m I.A N j.C n a.l g.p p y * * * ",
"* * * f.m l.A } B m c.l k.* * * * a Y * * * * * * * * * * * +X.XJ * * * * * * * k.k.s.* * * J O.m J.A N j.C n a.l g.y t * * * * ",
"* * * l.m r.C } B m c.l k.* * * * 8.g.d * * * * * * * * * * U T K * * * * * * y 8.k.p p r * J O.m x.C N j.C n a.l g.* * * * * * ",
"* * * S.V r.A } B N d.l k.* * * * K 4.p * * * * * * * * * * F.|.: * * * * * r p t * * w = * J 1.m j.C N j.C n a.l g.* * * * * * ",
"* * * ( x.o.[ } Z ' n a.I * * * * * * p p * * * * * * * * * {.J.K * * * * 5 p y * * * * * * ! 1.N e.{ N j.m  .} l g.* * * * * * ",
"* * * = = t.P.B.] u.i.= = * * * * * * 6 p 5 * * * * * * * * D H 9 * * * = p p * * * * * * * : 9.x.{ y.A j.n d.` d.K * * * * * * ",
"* * * * * * oXOX+X) * * * * * * * * * * p p * * * * * * * * g h 9 * * * p p * * * * * * * * * = = u.V.<.A.V._ 4.= * * * * * * * ",
"* * * * * * U.[.}.R * * * * * * * * * * = p t * * * * * * * 8 8 7 * * p p = * * * * * * * * * * * * F.+X.X[.u * * * * * * * * * ",
"* * * * * * U d = u * * * * * * * * * * * p p * * * * * * * * * * * p p 5 * * * * * * * * * * * * * M.OXR.H.e * * * * * * * * * ",
"* * * * * * f +XR.: * * * * * * * * * * * * p p * * * * * * * * * p p $.* * * * * * * * o * * * * * T e 5.L q * * * * * * * * * ",
"* * * * * * oX|.v.R * * &       .         . 5 p %                 # f . . . .       . .     * * * * * n.G.Q * * * * * * * * * * ",
"* * * * * * ] [ [ 0 * * $                   + a t X           X X ; 4 . . . . . . X - 1   . * * * * F.+XT.s.e * * * * * * * * * ",
"* * * * * * D S V 0 * * $     ;.m.%.%.:.m.m.m.m.p p s.g.* t p p *.m.m.m.m.m.m.m.m.m.m.m.    * * * * D.Y.I.8.e * * * * * * * * * ",
"* * * * * * [ g = k * * $   . m.m.E.m.m.W./.m.m.m.^ k.k.a y a m.m.m.m.W.#X].m.m.m.m.m.m.    * * * * j H H M 5 * * * * * * * * * ",
"* * * * * * M y = k * * $   o ,.m.m.W.m.$X#Xm.m.m.m.z.p.,.1 :.m.E.E.E.$X$X].m.m.'.`.m.m.    * * * * j M D b 5 * * * * * * * * * ",
"* * * * * * 7 5 * 6 * * o   # m.m.E.m.$X$X].m.m.XXXXm.m.m.    m.m.m.$X$X_.m.m.$X$X#Xm.m.    * * * * c w v 0 5 * * * * * * * * * ",
"* * * * * * * * * * * * X   % m.E.m.W.$X#Xm.m.).$X#Xm.m.m.    m.m.#X$X_.m.m.`.$X$Xm.m.m.    & * * * h 6 x 0 5 * * * * * * * * * ",
"* * * * * * * * * * * * .   % m.m.m.m.m.m.m.m.@X$Xm.m.m.m.    m.m.`._.m.m.m.~.`.m.m.m.m.    $ * * * 7 = 9 7 = * * * * * * * * * ",
"* * * * * * * * * * * *     o ,.E.m.m.m.m.m.m.W.m.m.m.m.m.    m.m.m.m.m.m.E.E.E.m.m.m.m.    $ * * * * * * * * * * * * * * * * * ",
"* * * * * * * * * * * *     X 4 3 < @ O O + - , 1 3 2 < -     O O O X X X . . . . . . .     & * * * * * * * * * * * * * * * * * ",
"* * * * * * * * * * * *     . O     . . . . . . . . . . .     . . . . . . . . . . . . .     & * * * * * * * * * * * * * * * * * ",
"* * * * * * * * * * * *     . :.E.m.m.m.m.m.m.m.m.m.m.m.m.    >.m.E.E.E.m.E.m.m.m.m.m.m.    & * * * * * * * * * * * * * * * * * ",
"* * * * * * * * * * * *       ;.E.m.m.m.Q.~.m.m.E.!.m.m.m.    m.m.m./.#Xm.m.m.m.!.E.m.m.    % * * * * * * * * * * * * * * * * * ",
"* * * * * * * * * * * * .     ;.E.m.m.Q.$X#Xm.!.$XXXm.m.m.    m.m.^.$X$Xm.m.m.$X$X~.m.m.    & * * * * * * * * * * * * * * * * * ",
"* * * * * * * * * * * * .     &.E.m.E.$X$X~.W.$X$Xm.m.m.m.    m.m.$X$X^.m.m.$X$X#Xm.m.m.    & * * * * * * * * * * * * * * * * * ",
"* * * * * * * * * * * * X     #.E.m.^.#X~.m.@X$X_.m.m.m.>.  . m.m.Q.^.m.m.Q.$X$Xm.m.m.m.    & * * * * * * * * * * * * * * * * * ",
"* * * * * * * * * * * * .     ;.m.E.m.E.E.m./.(.m.m.m.m.>.  . m.m.m.m.m.m.m.,.,.m.m.m.,.<   * * * * * * * * * * * * * * * * * * ",
"* * * * * * * * * * * *     . > m.m.m.m.m.m.m.m.m.m.m.m.m.. . :.;.-.=.%.%.@.@.@.%.-.-.+..   * * * * * * * * * * * * * * * * * * ",
"* * * * * * * * * * * *                                                                     * * * * * * * * * * * * * * * * * * ",
"* * * * * * * * * * * *   .       . . . . . . .   . . . . X X X X X X X X X X X X X . . . o * * * * * * * * * * * * * * * * * * ",
"* * * * * * * * * * * * * * * * * * * * * * * * * * * * * * * * * * * * * * * * * * * * * * * * * * * * * * * * * * * * * * * * ",
"* * * * * * * * * * * * * * * * * * * * * * * * * * * * * * * * * * * * * * * * * * * * * * * * * * * * * * * * * * * * * * * * ",
"* * * * * * * * * * * * * * * * * * * * * * * * * * * * * * * * * * * * * * * * * * * * * * * * * * * * * * * * * * * * * * * * ",
"* * * * * * * * * * * * * * * * * * * * * * * * * * * * * * * * * * * * * * * * * * * * * * * * * * * * * * * * * * * * * * * * ",
"* * * * * * * * * * * * * * * * * * * * * * * * * * * * * * * * * * * * * * * * * * * * * * * * * * * * * * * * * * * * * * * * ",
"* * * * * * * * * * * * * * * * * * * * * * * * * * * * * * * * * * * * * * * * * * * * * * * * * * * * * * * * * * * * * * * * ",
"* * * * * * * * * * * * * * * * * * * * * * * * * * * * * * * * * * * * * * * * * * * * * * * * * * * * * * * * * * * * * * * * ",
"* * * * * * * * * * * * * * * * * * * * * * * * * * * * * * * * * * * * * * * * * * * * * * * * * * * * * * * * * * * * * * * * ",
"* * * * * * * * * * * * * * * * * * * * * * * * * * * * * * * * * * * * * * * * * * * * * * * * * * * * * * * * * * * * * * * * ",
"* * * * * * * * * * * * * * * * * * * * * * * * * * * * * * * * * * * * * * * * * * * * * * * * * * * * * * * * * * * * * * * * ",
"* * * * * * * * * * * * * * * * * * * * * * * * * * * * * * * * * * * * * * * * * * * * * * * * * * * * * * * * * * * * * * * * ",
"* * * * * * * * * * * * * * * * * * * * * * * * * * * * * * * * * * * * * * * * * * * * * * * * * * * * * * * * * * * * * * * * ",
"* * * * * * * * * * * * * * * * * * * * * * * * * * * * * * * * * * * * * * * * * * * * * * * * * * * * * * * * * * * * * * * * ",
"* * * * * * * * * * * * * * * * * * * * * * * * * * * * * * * * * * * * * * * * * * * * * * * * * * * * * * * * * * * * * * * * ",
"* * * * * * * * * * * * * * * * * * * * * * * * * * * * * * * * * * * * * * * * * * * * * * * * * * * * * * * * * * * * * * * * ",
"* * * * * * * * * * * * * * * * * * * * * * * * * * * * * * * * * * * * * * * * * * * * * * * * * * * * * * * * * * * * * * * * ",
"* * * * * * * * * * * * * * * * * * * * * * * * * * * * * * * * * * * * * * * * * * * * * * * * * * * * * * * * * * * * * * * * ",
"* * * * * * * * * * * * * * * * * * * * * * * * * * * * * * * * * * * * * * * * * * * * * * * * * * * * * * * * * * * * * * * * ",
"* * * * * * * * * * * * * * * * * * * * * * * * * * * * * * * * * * * * * * * * * * * * * * * * * * * * * * * * * * * * * * * * ",
"* * * * * * * * * * * * * * * * * * * * * * * * * * * * * * * * * * * * * * * * * * * * * * * * * * * * * * * * * * * * * * * * ",
".               . o o X X X X X X X X X X X . X X . . . . . . . . . . . . . . .             . . . . . . . . . . . . . . . . .   ",
"                            . . .               . . .             . . . . . . . . .         . . . . . . . . . .               . ",
"                                                                              . . .                                             ",
"                                                                                                                                "
};
