/* XPM */
static char *_a4f11c8a00746d2dec800e5750e63c6gJQfeoY4zuGrlo3n[] = {
/* columns rows colors chars-per-pixel */
"64 64 23 1 ",
"  c #111315",
". c #131516",
"X c #191616",
"o c #151718",
"O c #381A1A",
"+ c #2B2828",
"@ c #3F3F3D",
"# c #400202",
"$ c #550303",
"% c #471D1C",
"& c #481D1C",
"* c #712321",
"= c #742422",
"- c #7D2523",
"; c #812623",
": c #942826",
"> c #AF2D29",
", c #B22D29",
"< c #CF322D",
"1 c #D3322E",
"2 c #DC342F",
"3 c #9E9891",
"4 c #F7EDE0",
/* pixels */
"############################# .... #############################",
"######......#############..............#############......######",
"####.........#########....................#########.........####",
"$##............#####........................#####............##$",
"$$.............###............................###.............$$",
"$$.............###............................###.............$$",
"$...............#..............................#...............$",
"$..............................................................$",
"$..............................................................$",
".............2....................................2.............",
"............2<....................................<2............",
"$..........:2......................................2:..........$",
"$..........2-......................................-2..........$",
"$..........2........................................2..........$",
"$$........12...o................................o...21........$$",
"$$........2&........................................&2........$$",
"$$........2&........................................&2........$$",
"$$$.......2..........................................2.......$$$",
"$$$$........................................................$$$$",
"$$$$$$....................................................$$$$$$",
"$$$$$$$$$$............................................$$$$$$$$$$",
"$$$$$$$$$$$..........................................$$$$$$$$$$$",
"$$$$$$$$$$$..........................................$$$$$$$$$$$",
"$$$$$$$$$$$..........................................$$$$$$$$$$$",
"$$$$$$$$$$$..........................................$$$$$$$$$$$",
"$$$$$$$$$$$$........................................$$$$$$$$$$$$",
"$$$$$$$$$$$$........................................$$$$$$$$$$$$",
"$$$$$$$$$$$$........................................$$$$$$$$$$$$",
"$$$$$$$$$$$$........................................$$$$$$$$$$$$",
"$$$$$$$$$$$$$......................................$$$$$$$$$$$$$",
"$$$$$$$$$$$$$$....................................$$$$$$$$$$$$$$",
"$$$$$$$$$$$$$$$..................................$$$$$$$$$$$$$$$",
"$$$$$$$$$$$$$$$..................................$$$$$$$$$$$$$$$",
"$$$$$$$$$$$$$$$$.............................@..$$$$$$$$$$$$$$$$",
"$$$$$$$$$$$$$$$$$$............................$$$$$$$$$$$$$$$$$$",
"$$$$$$$$$$$$$$$$$$$..........................$$$$$$$$$$$$$$$$$$$",
"$$$$$$$$$$$$$$$$$$$$$......................$$$$$$$$$$$$$$$$$$$$$",
"$$$$$$$$$$$$$$$$$$$$$......................$$$$$$$$$$$$$$$$$$$$$",
"$$$$$$$$$$$$$$$$$$$$..2.222%........%222.2..$$$$$$$$$$$$$$$$$$$$",
"$$$$$$$$$$$$$$$$$$..222.2222222222222222.222..$$$$$$$$$$$$$$$$$$",
"$$$$$$$$$$$$$$$$$..2222.2222222222222222.2222..$$$$$$$$$$$$$$$$$",
"$$$$$$$$$$$$$$$$..2222.X2222222222222222X.2222..$$$$$$$$$$$$$$$$",
"$$$$$$$$$$$$$$$..22222.222222222222222222.22222..$$$$$$$$$$$$$$$",
"$$$$$$$$$$$$$$$.X22222.222222222222222222.22222X.$$$$$$$$$$$$$$$",
"$$$$$$$$$$$$$$$..O222,.222222222222222222.,222O..$$$$$$$$$$$$$$$",
"$$$$$$$$$$$$$$..4.*22.=222222222222222222=.22*.4..$$$$$$$$$$$$$$",
"$$$$$$$$$$$$$$..44.>;.22222222222222222222.;>.44..$$$$$$$$$$$$$$",
"$$$$$$$$$$$$$##.443...22222222222222222222...344.#$$$$$$$$$$$$$$",
"$$$$$$$$$$$$###.443...22222222222222222222...344.##$$$$$$$$$$$$$",
"$$$$$$$$$$$####.......22222222222222222222.......###$$$$$$$$$$$$",
"$$$$$$$$$$##########....2222222222222222....#########$$$$$$$$$$$",
"$$$$$$$$$##############........++........#############$$$$$$$$$$",
"$$$$$$$$################.......++.......###############$$$$$$$$$",
"$$$$$$$#################.......##.......################$$$$$$$$",
"$$$$$$##################.......##.......#################$$$$$$$",
"$$$$$###################.......##.......##################$$$$$$",
"$$$$####################.......##.......###################$$$$$",
"$$$#####################.......##.......####################$$$$",
"$$######################.......##.......#####################$$$",
"$#######################.......##.......######################$$",
"########################.......##.......#######################$",
"#########################.....####.....#########################",
"##########################...######...##########################",
"################################################################"
};
